<svg width="656" height="492" viewBox="0 0 656 492" fill="none" xmlns="http://www.w3.org/2000/svg">
<path d="M310.895 475.6L26.24 307.451C17.1708 302.367 9.39719 294.003 18.2368 288.525L303.925 123.902C308.205 121.245 314.716 119.507 319.078 122.032L617.87 295.446C626.939 300.71 628.563 315.405 619.51 320.669L348.418 475.42C342.719 478.709 336.26 480.455 329.68 480.487C323.1 480.518 316.625 478.834 310.895 475.6Z" fill="#FB9C4D"/>
<path d="M256.758 326.655L329.82 298.988L390.32 326.672L322.178 368.082C306.778 358.061 271.682 337.315 256.758 326.655Z" fill="url(#paint0_linear_52_103)"/>
<path d="M176.661 365.179L246.377 330.739L299.07 362.735L230.928 399.488C215.545 389.533 191.585 375.839 176.661 365.179Z" fill="url(#paint1_linear_52_103)"/>
<path d="M359.734 287.771L310.78 306.139C310.78 306.139 308.73 307.467 310.042 310.649C310.796 312.469 314.847 315.093 314.847 315.093L357.11 339.693C359.42 340.723 361.877 341.387 364.392 341.661C367.77 341.858 373.428 339.119 373.428 339.119L412.788 316.323L359.734 287.771Z" fill="#34323D"/>
<path d="M359.045 285.491L312.272 304.614C312.272 304.614 308.992 306.401 309.862 308.828C310.797 310.633 312.254 312.113 314.044 313.076L356.421 337.43C358.732 338.46 361.188 339.124 363.703 339.398C367.081 339.595 372.739 336.856 372.739 336.856L410 315.667L359.045 285.491Z" fill="#68E1FD"/>
<path opacity="0.45" d="M359.045 285.491L312.272 304.614C312.272 304.614 308.992 306.401 309.862 308.828C310.797 310.633 312.254 312.113 314.044 313.076L356.421 337.43C358.732 338.46 361.188 339.124 363.703 339.398C367.081 339.595 372.739 336.856 372.739 336.856L410 315.667L359.045 285.491Z" fill="#06577A"/>
<path d="M469.663 349.861C470.555 350.241 471.546 350.323 472.488 350.096C473.43 349.868 474.274 349.343 474.895 348.598C474.895 348.598 475.813 348.418 475.813 344.4V157.916C475.763 156.302 475.374 154.718 474.67 153.265C473.967 151.813 472.965 150.525 471.73 149.486C467.159 146.285 462.394 143.372 457.462 140.761L250.264 21.156L247.935 19.9752C247.151 19.5856 246.252 19.4904 245.404 19.7071C244.555 19.9238 243.812 20.438 243.31 21.156C242.703 22.1893 242.354 23.3539 242.294 24.5508C242.212 26.5024 242.294 45.346 242.294 45.346V213.118C242.293 214.729 242.628 216.322 243.278 217.796C243.927 219.27 244.877 220.592 246.066 221.679L469.663 349.861Z" fill="#68E1FD"/>
<path d="M472.008 321.604V160.72C472.008 155.374 471.27 152.389 467.088 150.158L248.558 23.5504C248.128 23.2306 247.617 23.0369 247.083 22.9911C246.549 22.9452 246.013 23.049 245.535 23.2907C245.056 23.5325 244.654 23.9027 244.375 24.3599C244.095 24.8171 243.948 25.3432 243.95 25.8792L244.491 191.322L472.008 321.604Z" fill="white"/>
<path d="M497.346 319.8L543.66 299.054L569.08 317.914L530.163 340.48C520.815 334.429 506.35 326.18 497.346 319.8Z" fill="url(#paint2_linear_52_103)"/>
<path d="M456.97 162.229V217.776L416.773 194.471L417.052 139.039L456.97 162.229Z" fill="#FB9C4D"/>
<path d="M406.786 134.496V190.043L366.589 166.722L366.868 111.307L406.786 134.496Z" fill="#06577A"/>
<path d="M355.683 105.304V160.851L315.487 137.53L315.749 82.1148L355.683 105.304Z" fill="#F78B72"/>
<path d="M302.35 74.9644V130.511L262.154 107.207L262.416 51.7748L302.35 74.9644Z" fill="#22B573"/>
<path d="M458.216 231.01L367.836 179.678C367.274 179.378 366.618 179.307 366.005 179.48C365.392 179.653 364.87 180.058 364.549 180.608C364.228 181.158 364.133 181.812 364.285 182.431C364.436 183.049 364.821 183.585 365.359 183.926L455.74 235.258C456.301 235.559 456.958 235.63 457.57 235.456C458.183 235.283 458.705 234.879 459.026 234.328C459.347 233.778 459.442 233.125 459.291 232.506C459.14 231.887 458.754 231.351 458.216 231.01Z" fill="#FBB03B"/>
<path d="M456.445 246.312L366.064 194.98C365.503 194.679 364.846 194.608 364.234 194.781C363.621 194.955 363.099 195.359 362.778 195.909C362.457 196.46 362.362 197.113 362.513 197.732C362.664 198.351 363.05 198.887 363.588 199.227L453.968 250.559C454.53 250.86 455.186 250.931 455.799 250.758C456.412 250.584 456.934 250.18 457.255 249.63C457.576 249.079 457.671 248.426 457.519 247.807C457.368 247.188 456.983 246.652 456.445 246.312V246.312Z" fill="#FBB03B"/>
<path d="M455.395 260.924L365.015 209.592C364.453 209.291 363.797 209.22 363.184 209.394C362.571 209.567 362.049 209.971 361.728 210.522C361.408 211.072 361.313 211.725 361.464 212.344C361.615 212.963 362 213.499 362.538 213.84L452.919 265.172C453.48 265.472 454.137 265.543 454.75 265.37C455.363 265.197 455.884 264.792 456.205 264.242C456.526 263.692 456.621 263.038 456.47 262.419C456.319 261.801 455.934 261.265 455.395 260.924V260.924Z" fill="#FBB03B"/>
<path d="M334.521 202.66C342.949 200.414 347.294 189.257 344.225 177.739C341.156 166.221 331.836 158.705 323.407 160.951C314.979 163.196 310.634 174.354 313.703 185.872C316.772 197.389 326.093 204.906 334.521 202.66Z" fill="#06577A"/>
<path d="M279.995 176.691C288.424 174.445 292.768 163.287 289.699 151.769C286.63 140.252 277.31 132.735 268.882 134.981C260.453 137.227 256.109 148.384 259.178 159.902C262.247 171.42 271.567 178.936 279.995 176.691Z" fill="#FB9C4D"/>
<path d="M252.691 335.413C252.691 335.413 262.613 331.001 265.008 330.821C267.402 330.64 271.387 331.46 267.91 335.839C267.91 335.839 257.48 342.662 256.102 342.875C254.725 343.088 251.379 342.038 251.297 342.399C251.215 342.76 250.904 345.4 250.904 345.4C250.904 345.4 242.179 348.68 241.802 342.891C241.802 342.137 243.064 331.296 243.064 331.296" fill="#E55600"/>
<path d="M241.31 309.829C243.032 298.611 246.23 287.738 247.509 276.389C248.329 269.255 248.919 262.072 249.805 254.938C250.69 247.804 253.347 240.9 255.053 233.831C255.097 233.667 255.086 233.492 255.02 233.335C254.955 233.178 254.84 233.047 254.692 232.962C254.692 232.716 254.84 232.47 254.922 232.224C255.807 231.388 256.709 230.584 257.578 229.83L269.78 238.03C269.78 238.03 269.78 245.492 269.321 256.332C267.91 262.646 266.828 268.271 265.221 274.257C265.391 274.449 265.513 274.678 265.579 274.926C265.644 275.174 265.651 275.433 265.598 275.684C261.63 294.528 258.738 313.583 256.939 332.756C256.916 333.073 256.802 333.377 256.61 333.63C256.417 333.884 256.156 334.076 255.856 334.183L255.512 337.135C244.901 341.235 242.572 334.101 242.572 334.101C242.572 334.101 242.097 328.016 241.49 319.587C241.277 316.307 241.228 313.076 241.31 309.829Z" fill="#34323D"/>
<path d="M316.52 192.913L316.799 193.012C316.667 192.841 316.578 192.642 316.538 192.431C316.498 192.219 316.509 192.001 316.57 191.795C316.631 191.588 316.74 191.399 316.888 191.243C317.036 191.087 317.219 190.968 317.422 190.896C318.012 190.699 318.619 190.535 319.226 190.338C319.273 190.267 319.328 190.201 319.39 190.142C319.586 189.966 319.801 189.812 320.03 189.682C320.137 189.52 320.283 189.386 320.455 189.295C320.627 189.203 320.819 189.156 321.014 189.158H321.473C321.981 189.043 322.506 188.944 323.113 188.83L324.966 188.42C325.022 188.251 325.111 188.094 325.228 187.96C327.783 184.891 330.113 181.641 332.198 178.235C332.953 177.087 335.085 177.776 334.56 179.219C334.075 180.847 333.444 182.428 332.674 183.942C335.413 181.154 336.905 180.531 339.398 177.514C340.464 176.234 342.268 178.071 341.218 179.334C340.579 180.105 338.053 182.056 337.414 182.811C338.644 181.679 341.76 179.35 343.006 178.235C344.252 177.12 346.073 178.957 344.826 180.056C342.837 181.827 340.874 183.625 338.939 185.451C340.694 184.369 342.416 183.237 344.088 182.024C345.433 181.04 346.712 183.286 345.384 184.254C343.465 185.648 341.481 186.944 339.447 188.157C340.73 187.892 341.991 187.53 343.219 187.075C344.761 186.468 345.433 188.961 343.908 189.568C342.645 190.06 341.333 190.47 340.038 190.88L338.086 191.503C337.32 191.708 336.59 192.029 335.921 192.454C333.384 194.018 330.617 195.174 327.721 195.882L327.18 196.21C327.01 196.306 326.818 196.357 326.622 196.357C326.427 196.357 326.235 196.306 326.065 196.21C322.644 196.89 319.101 196.606 315.831 195.39C314.306 194.832 314.88 192.339 316.52 192.913Z" fill="#FCBF81"/>
<path d="M278.636 172.02C279.112 171.49 279.628 170.996 280.178 170.544C280.167 170.581 280.167 170.621 280.178 170.658C280.167 170.71 280.173 170.763 280.194 170.811C280.216 170.859 280.252 170.899 280.298 170.924C280.344 170.95 280.397 170.96 280.449 170.954C280.501 170.947 280.55 170.924 280.588 170.888L281.604 170.117C281.545 170.241 281.506 170.374 281.49 170.511C281.455 170.777 281.522 171.046 281.677 171.265C281.832 171.484 282.064 171.636 282.326 171.692C282.477 171.736 282.636 171.746 282.791 171.721C282.946 171.696 283.094 171.637 283.223 171.547C283.352 171.457 283.459 171.34 283.537 171.203C283.614 171.066 283.66 170.914 283.671 170.757L284.097 170.511C284.08 170.619 284.08 170.73 284.097 170.839C284.095 170.995 284.132 171.15 284.205 171.289C284.278 171.427 284.385 171.545 284.516 171.632C284.646 171.719 284.797 171.771 284.953 171.784C285.109 171.797 285.266 171.771 285.409 171.708L285.852 171.511C285.927 171.587 286.016 171.647 286.115 171.686C286.214 171.726 286.32 171.744 286.426 171.741C287.39 171.755 288.354 171.711 289.312 171.61C289.263 171.564 289.225 171.508 289.203 171.445C289.18 171.381 289.173 171.314 289.183 171.247C289.193 171.181 289.219 171.118 289.258 171.064C289.298 171.01 289.35 170.966 289.411 170.937C290.657 170.499 291.935 170.154 293.232 169.904H293.38L293.478 169.822C294.017 169.096 294.268 168.196 294.183 167.296C294.552 167.074 294.866 166.771 295.101 166.41C295.337 166.05 295.488 165.641 295.544 165.214C295.462 165.175 295.393 165.112 295.348 165.033C295.238 164.845 295.161 164.64 295.118 164.426C295.014 164.12 294.964 163.798 294.97 163.475C294.974 163.398 295 163.323 295.047 163.262C295.094 163.2 295.159 163.154 295.233 163.131C295.02 162.458 294.741 161.786 294.478 161.179C296.091 159.822 297.266 158.019 297.857 155.997C297.916 155.808 297.913 155.605 297.847 155.419C297.782 155.232 297.658 155.071 297.494 154.961C297.33 154.85 297.134 154.795 296.937 154.805C296.739 154.814 296.55 154.887 296.397 155.013C295.779 155.523 295.193 156.07 294.642 156.653C294.514 156.682 294.396 156.745 294.298 156.833C291.366 159.732 288.278 162.47 285.048 165.033C284.507 165.46 278.128 169.855 278.488 170.166C278.357 170.232 271.945 177.12 278.636 172.02ZM282.064 170.38C282.074 170.414 282.092 170.445 282.116 170.471C282.14 170.498 282.169 170.519 282.202 170.533C282.234 170.547 282.27 170.554 282.306 170.553C282.341 170.552 282.376 170.543 282.408 170.527C282.486 170.642 282.588 170.737 282.707 170.808C282.826 170.879 282.959 170.923 283.097 170.937C283.034 171.083 282.915 171.198 282.768 171.256C282.62 171.314 282.455 171.312 282.31 171.249C282.164 171.186 282.049 171.067 281.991 170.92C281.932 170.772 281.935 170.607 281.998 170.462L282.064 170.38Z" fill="#FCBF81"/>
<path d="M279.768 170.298C280.965 169.909 282.078 169.297 283.048 168.494C283.238 168.323 283.46 168.192 283.702 168.108C283.944 168.025 284.2 167.99 284.455 168.007C284.71 168.024 284.959 168.092 285.188 168.206C285.417 168.321 285.62 168.48 285.786 168.674C286.02 168.224 286.223 167.758 286.393 167.28C286.593 166.81 286.963 166.433 287.43 166.225C287.897 166.018 288.425 165.995 288.907 166.161C289.39 166.328 289.792 166.671 290.032 167.123C290.271 167.574 290.331 168.099 290.198 168.592C289.604 170.544 288.418 172.264 286.803 173.512C285.139 174.559 283.3 175.297 281.375 175.693C281.04 175.75 280.697 175.724 280.375 175.616C280.053 175.509 279.762 175.324 279.529 175.077C279.295 174.831 279.126 174.531 279.036 174.203C278.946 173.876 278.938 173.531 279.013 173.2L278.898 173.004C278.661 172.528 278.619 171.979 278.782 171.474C278.944 170.968 279.298 170.546 279.768 170.298V170.298Z" fill="#FCBF81"/>
<path d="M285.36 173.84C287.309 173.371 289.018 172.204 290.165 170.56C290.171 170.59 290.183 170.619 290.2 170.645C290.218 170.671 290.24 170.693 290.266 170.71C290.292 170.727 290.321 170.738 290.352 170.743C290.382 170.749 290.414 170.748 290.444 170.74L292.314 170.265C292.698 170.192 293.069 170.059 293.412 169.871C294.216 169.363 293.986 168.379 293.986 167.559C294.002 167.511 294.002 167.459 293.986 167.411L294.314 167.132C294.881 166.723 295.31 166.151 295.544 165.492C295.676 164.804 295.216 164.148 295.118 163.475C295.277 163.164 295.333 162.81 295.277 162.465C295.221 162.119 295.056 161.801 294.806 161.556C294.134 160.9 293.462 161.36 292.822 161.802C291.444 162.743 290.1 163.732 288.788 164.771C288.525 164.968 288.788 165.345 289.116 165.148C289.826 164.59 290.548 164.044 291.28 163.508C291.955 162.851 292.723 162.298 293.56 161.868C295.594 161.491 294.429 163.705 293.954 164.213C293.478 164.722 293.347 164.771 293.035 165.033L290.952 166.837C290.926 166.859 290.905 166.887 290.891 166.918C290.877 166.949 290.87 166.983 290.87 167.018C290.754 168.533 290.151 169.971 289.153 171.117C288.154 172.263 286.813 173.057 285.327 173.381C284.917 173.496 285.016 173.988 285.36 173.84ZM291.543 167.28C291.504 167.253 291.459 167.239 291.412 167.239C291.365 167.239 291.319 167.253 291.28 167.28C291.28 167.28 291.28 167.165 291.28 167.116C292.552 166.216 293.708 165.164 294.724 163.984C294.724 164.18 294.856 164.361 294.921 164.574C295.015 164.864 295.019 165.175 294.934 165.467C294.85 165.759 294.679 166.019 294.446 166.214C293.839 166.886 292.33 168.379 291.494 167.411L291.543 167.28ZM290.362 170.117C290.799 169.369 291.093 168.546 291.231 167.69C291.904 168.379 292.773 168.1 293.511 167.69C293.544 168.039 293.544 168.391 293.511 168.74C293.511 169.264 293.101 169.478 292.625 169.609C291.92 169.888 291.084 170.052 290.28 170.248L290.362 170.117Z" fill="#34323D"/>
<path d="M256.217 184.27C257.004 183.04 283.097 167.247 284.688 165.279C286.38 167.436 287.382 170.054 287.563 172.789C287.745 175.525 287.097 178.252 285.704 180.613C285.704 180.613 271.076 197.751 263.466 199.276" fill="#5F66FC"/>
<path d="M274.405 351.731L280.309 353.846C280.486 354.381 280.798 354.861 281.214 355.24C281.631 355.619 282.138 355.885 282.687 356.011C282.894 356.26 283.186 356.424 283.507 356.47C285.897 356.642 288.295 356.254 290.51 355.339C293.33 354.453 304.351 350.238 301.301 358.143C299.284 359.554 297.037 360.784 294.987 362.03C293.822 362.735 292.674 363.44 291.477 364.096C290.845 364.525 290.147 364.846 289.411 365.048C287.771 365.294 283.982 364.096 283.884 364.506C283.786 364.916 283.425 367.95 283.425 367.95C283.425 367.95 273.388 371.788 272.945 365.064C272.896 364.178 274.405 351.731 274.405 351.731Z" fill="#E55600"/>
<path d="M266.106 291.395C264.876 271.568 264.204 251.609 260.006 232.126C259.825 227.058 256.545 230.289 256.726 228.288C258.513 211.97 282.277 231.388 282.277 231.388C283.244 232.175 283.359 237.177 283.556 238.308C284.649 244.573 285.568 250.86 286.311 257.168C290.247 289.017 288.788 320.718 287.18 352.666C282.129 357.832 278.833 359.373 270.698 356.044C269.058 335.134 267.533 314.224 266.188 293.281L266.106 291.395Z" fill="#34323D"/>
<path d="M252.56 216.48C251.644 206.668 251.43 196.803 251.92 186.96C252.101 184.385 252.806 178.055 255.381 176.562C261.039 173.282 268.911 176.218 273.683 179.728C280.046 184.418 283.72 228.042 283.736 238.768C274.979 242.228 263.532 243.54 254.577 239.834C253.79 239.506 253.61 228.796 253.495 227.468C253.265 223.794 252.937 220.121 252.56 216.48Z" fill="#8B93FC"/>
<path d="M270.78 202.179C271.049 205.266 272.26 208.195 274.249 210.571C276.238 212.947 278.908 214.655 281.9 215.463C281.9 216.07 282.096 219.842 282.146 220.383C274.995 218.743 269.731 209.707 269.026 202.114C268.878 201.031 270.6 201.048 270.78 202.179Z" fill="#34323D"/>
<path d="M270.977 157.817C271.535 158.08 274.257 170.298 271.076 176.808C267.894 183.319 257.529 174.037 255.594 168.264C253.659 162.491 260.498 152.881 270.977 157.817Z" fill="#FCBF81"/>
<path d="M270.6 159.359C270.394 160.407 269.887 161.373 269.142 162.139C268.396 162.905 267.444 163.438 266.402 163.672C262.908 164.262 260.055 164.558 259.94 166.099C259.825 167.641 265.877 167.001 265.237 170.462C264.8 172.788 264.049 175.044 263.007 177.169C262.334 178.809 253.528 171.757 251.97 162.294C250.412 152.832 258.94 152.028 259.35 152.028C260.88 150.54 262.922 149.695 265.057 149.666C269.19 149.552 269.977 151.306 269.977 151.306C270.981 150.937 272.079 150.906 273.103 151.216C274.127 151.527 275.021 152.163 275.651 153.028C278.751 156.62 276.816 161.737 272.289 163.114L270.6 159.359Z" fill="#E55600"/>
<path d="M273.372 184.451C273.372 184.451 295.758 192.028 303.006 190.617C309.954 188.824 316.775 186.572 323.424 183.877C329.246 187.157 331.018 194.455 329.033 200.72C320.522 203.868 295.233 212.741 286.262 210.281C275.405 207.312 263.302 202.901 263.302 202.901C263.302 202.901 251.56 195.16 273.372 184.451Z" fill="#8B93FC"/>
<path d="M454.149 276.242V289.673C454.148 290.156 454.021 290.629 453.782 291.048C453.543 291.467 453.199 291.817 452.784 292.063C452.369 292.309 451.898 292.444 451.415 292.453C450.933 292.462 450.457 292.347 450.032 292.117L437.618 285.36C437.18 285.119 436.816 284.765 436.562 284.336C436.308 283.906 436.174 283.416 436.174 282.916V269.173C436.177 268.686 436.306 268.209 436.55 267.788C436.795 267.367 437.145 267.017 437.566 266.773C437.987 266.529 438.465 266.4 438.951 266.398C439.438 266.396 439.917 266.522 440.34 266.762L452.755 273.896C453.169 274.135 453.514 274.476 453.758 274.887C454.002 275.297 454.137 275.764 454.149 276.242Z" fill="#EF7F6C"/>
<path d="M429.057 262.4V275.832C429.055 276.314 428.929 276.788 428.69 277.207C428.451 277.626 428.107 277.975 427.692 278.221C427.277 278.468 426.806 278.602 426.323 278.612C425.841 278.621 425.364 278.505 424.94 278.275L412.526 271.453C412.088 271.212 411.724 270.858 411.47 270.428C411.216 269.999 411.082 269.508 411.082 269.009V255.266C411.085 254.779 411.214 254.302 411.458 253.881C411.703 253.46 412.053 253.11 412.474 252.866C412.895 252.622 413.373 252.493 413.859 252.491C414.346 252.489 414.825 252.615 415.248 252.855L427.663 259.989C428.086 260.234 428.438 260.585 428.682 261.008C428.927 261.431 429.056 261.911 429.057 262.4V262.4Z" fill="#06577A"/>
<path d="M401.505 246.902V260.334C401.503 260.816 401.377 261.29 401.138 261.709C400.899 262.128 400.555 262.477 400.14 262.723C399.725 262.97 399.254 263.104 398.771 263.113C398.289 263.123 397.812 263.007 397.388 262.777L384.974 255.955C384.536 255.714 384.172 255.36 383.918 254.93C383.664 254.5 383.53 254.01 383.53 253.511V239.768C383.533 239.281 383.662 238.804 383.906 238.383C384.151 237.962 384.501 237.612 384.922 237.368C385.343 237.124 385.821 236.995 386.307 236.993C386.794 236.991 387.273 237.117 387.696 237.357L400.111 244.491C400.534 244.736 400.886 245.087 401.13 245.51C401.375 245.933 401.504 246.413 401.505 246.902V246.902Z" fill="#22B573"/>
<path d="M579.445 281.178C579.445 281.178 583.2 313.42 566.128 319.669C549.056 325.917 539.888 309.665 539.675 281.178" fill="#06577A"/>
<path d="M559.552 292.674C570.529 292.674 579.428 287.527 579.428 281.178C579.428 274.829 570.529 269.682 559.552 269.682C548.574 269.682 539.675 274.829 539.675 281.178C539.675 287.527 548.574 292.674 559.552 292.674Z" fill="#F2696A"/>
<path d="M554.468 255.61C554.468 255.61 562.274 244.344 558.863 236.554C558.863 236.554 556.058 231.552 552.073 230.748C552.073 230.748 552.467 241.424 548.498 240.063C544.529 238.702 548.498 228.878 548.498 228.878C548.498 228.878 544.316 223.22 539.74 223.401C535.165 223.581 539.74 233.388 536.559 231.765C533.377 230.141 536.362 221.794 532.787 220.793C529.514 220.025 526.194 219.477 522.848 219.153C522.848 219.153 519.47 228.895 522.848 230.289C526.227 231.683 531.196 232.158 528.818 234.307C526.44 236.455 519.667 233.979 519.667 233.979C519.667 233.979 519.24 239.456 521.536 241.834C523.832 244.212 537.362 238.964 534.968 243.671C532.574 248.378 523.636 246.016 523.636 246.016C523.636 246.016 528.211 252.576 533.574 255.528C538.937 258.48 554.468 255.61 554.468 255.61Z" fill="#8CCC00"/>
<path d="M552.68 283.802C552.68 283.802 558.322 278.242 557.206 273.454C556.641 271.759 555.474 270.329 553.926 269.436C553.926 269.436 553.008 275.536 550.892 274.356C548.777 273.175 552.09 268.009 552.09 268.009C552.09 268.009 550.318 264.352 547.711 263.958C545.103 263.564 546.645 269.632 545.005 268.37C543.365 267.107 545.956 262.679 544.037 261.81C542.257 261.032 540.427 260.374 538.56 259.842C538.56 259.842 535.608 265.008 537.379 266.172C539.15 267.336 541.922 268.124 540.331 269.091C538.74 270.059 535.165 267.927 535.165 267.927C535.165 267.927 534.345 270.994 535.394 272.584C536.444 274.175 544.677 272.584 542.824 275.061C540.97 277.537 536.132 275.192 536.132 275.192C537.252 277.618 538.822 279.811 540.757 281.654C543.512 283.851 552.68 283.802 552.68 283.802Z" fill="#8CCC00"/>
<path d="M573.377 271.781C573.377 271.781 587.071 272.306 591.81 265.221C591.81 265.221 594.516 260.17 593.057 256.381C593.057 256.381 584.266 262.449 583.217 258.366C582.167 254.282 592.647 252.363 592.647 252.363C592.647 252.363 595.172 245.803 592.647 242.048C590.121 238.292 584.217 247.41 583.889 243.852C583.561 240.293 592.204 238.325 591.105 234.766C589.98 231.597 588.643 228.507 587.104 225.516C587.104 225.516 577.067 227.894 577.706 231.502C578.346 235.11 580.626 239.555 577.526 238.686C574.426 237.816 572.885 230.797 572.885 230.797C572.885 230.797 567.965 233.388 567.276 236.603C566.587 239.817 578.198 248.411 572.95 248.919C567.702 249.428 564.882 240.621 564.882 240.621C564.882 240.621 561.831 247.984 562.192 254.118C562.553 260.252 573.377 271.781 573.377 271.781Z" fill="#8CCC00"/>
<path d="M525.817 223.532L530.196 227.271C530.048 225.713 529.868 224.172 529.622 222.63C529.49 221.81 530.737 221.466 530.868 222.286C531.196 224.352 531.442 226.424 531.606 228.501C535.444 231.863 539.248 235.389 542.807 239.128C543.11 236.505 543.186 233.86 543.037 231.224C543.037 230.387 544.283 230.387 544.332 231.224C544.5 234.274 544.374 237.333 543.955 240.358C546.218 242.802 548.342 245.37 550.318 248.05C552.54 244.976 554.053 241.447 554.746 237.718C554.894 236.898 556.14 237.242 555.993 238.062C555.251 242.031 553.613 245.778 551.204 249.018C551.166 249.062 551.121 249.1 551.073 249.132C557.07 257.133 560.531 266.747 561.011 276.734C561.011 277.57 559.748 277.57 559.716 276.734C559.253 267.102 555.936 257.825 550.187 250.084C544.965 251.496 539.548 252.05 534.148 251.724C533.328 251.724 533.312 250.379 534.148 250.428C539.269 250.76 544.411 250.284 549.384 249.018C546.638 245.313 543.623 241.816 540.364 238.554H540.249C537.231 238.817 534.214 239.096 531.18 239.194C529.279 239.467 527.341 239.241 525.554 238.538C524.816 238.161 525.472 237.046 526.21 237.423C528.293 238.472 531.212 237.915 533.459 237.784C535.378 237.669 537.297 237.505 539.216 237.341C534.607 232.765 529.654 228.518 524.882 224.483C524.259 223.909 525.177 223.04 525.817 223.532Z" fill="#06577A"/>
<path d="M565.915 248.722C565.869 248.557 565.891 248.38 565.976 248.231C566.06 248.082 566.2 247.973 566.366 247.927C566.531 247.881 566.708 247.903 566.857 247.988C567.006 248.072 567.115 248.213 567.161 248.378C568.561 253.152 571.473 257.342 575.46 260.317C576.925 256.25 578.264 252.134 579.478 247.968C576.354 244.857 573.786 241.235 571.884 237.259C571.524 236.504 572.639 235.848 573 236.603C574.76 240.231 577.091 243.553 579.904 246.443C581.249 241.687 582.446 236.865 583.446 232.011C583.61 231.191 584.857 231.535 584.693 232.355C583.315 239.003 581.615 245.563 579.592 252.035C582.034 251.557 584.408 250.78 586.661 249.723C587.415 249.362 588.071 250.477 587.317 250.838C584.714 252.075 581.956 252.953 579.117 253.446C577.756 257.71 576.214 261.908 574.59 266.074C578.461 265.952 582.276 265.112 585.841 263.597C586.595 263.269 587.251 264.384 586.497 264.712C582.57 266.399 578.354 267.306 574.082 267.386C572.005 272.568 569.72 277.674 567.227 282.703C566.85 283.441 565.734 282.802 566.112 282.047C569.447 275.367 572.409 268.506 574.984 261.498V261.498C570.635 258.356 567.447 253.864 565.915 248.722V248.722Z" fill="#06577A"/>
<path d="M542.479 265.467L546.038 271.436C546.475 270.852 546.854 270.225 547.17 269.567C547.53 268.812 548.646 269.468 548.285 270.223C547.878 271.064 547.378 271.856 546.792 272.584V272.584L550.646 279.062C551.078 278.647 551.355 278.098 551.434 277.504C551.532 276.684 552.828 276.684 552.729 277.504C552.612 278.54 552.101 279.491 551.302 280.161L556.124 288.263C556.211 288.411 556.236 288.587 556.193 288.753C556.15 288.919 556.042 289.061 555.894 289.148C555.747 289.235 555.57 289.26 555.404 289.217C555.238 289.174 555.096 289.067 555.009 288.919L548.646 278.242C547.577 278.259 546.513 278.098 545.497 277.767C544.71 277.504 545.054 276.258 545.841 276.52C546.491 276.725 547.162 276.851 547.842 276.898L541.397 266.074C541.359 265.936 541.369 265.79 541.424 265.658C541.479 265.527 541.577 265.418 541.701 265.348C541.826 265.278 541.97 265.252 542.111 265.273C542.252 265.295 542.381 265.363 542.479 265.467V265.467Z" fill="#06577A"/>
<path d="M23.862 304.023L93.5784 269.583L146.272 301.58L78.1296 338.398C62.7464 328.377 38.786 314.683 23.862 304.023Z" fill="url(#paint3_linear_52_103)"/>
<path d="M149.748 213.102V294.134C149.748 294.134 71.8648 298.464 71.8648 294.134V213.102" fill="#68E1FD"/>
<path d="M110.798 311.239C132.31 311.239 149.748 303.273 149.748 293.445C149.748 283.618 132.31 275.651 110.798 275.651C89.2869 275.651 71.8484 283.618 71.8484 293.445C71.8484 303.273 89.2869 311.239 110.798 311.239Z" fill="#68E1FD"/>
<path d="M110.798 230.896C132.31 230.896 149.748 222.929 149.748 213.102C149.748 203.274 132.31 195.308 110.798 195.308C89.2869 195.308 71.8484 203.274 71.8484 213.102C71.8484 222.929 89.2869 230.896 110.798 230.896Z" fill="#3129A3"/>
<path d="M135.07 226.943L134.808 227.091C133.316 227.616 131.807 228.091 130.265 228.468L140.86 139.728C140.86 139.728 143.074 138.514 146.288 140.728L135.415 226.779L135.07 226.943Z" fill="#F78B72"/>
<path d="M123 229.682L119.72 146.386C119.72 146.386 121.721 144.828 125.23 146.518L127.92 228.993C126.294 229.316 124.652 229.546 123 229.682V229.682Z" fill="#F78B72"/>
<path d="M110.798 230.896L100.04 144.058L78.3592 155.538L87.1332 228.485C94.8115 230.71 102.829 231.527 110.798 230.896Z" fill="#FCB749"/>
<defs>
<linearGradient id="paint0_linear_52_103" x1="301.383" y1="347.893" x2="338.217" y2="312.584" gradientUnits="userSpaceOnUse">
<stop stop-color="#FB9C4D"/>
<stop offset="0.98" stop-color="#E16C3F"/>
</linearGradient>
<linearGradient id="paint1_linear_52_103" x1="220.58" y1="377.085" x2="281.719" y2="330.739" gradientUnits="userSpaceOnUse">
<stop stop-color="#FB9C4D"/>
<stop offset="0.98" stop-color="#E16C3F"/>
</linearGradient>
<linearGradient id="paint2_linear_52_103" x1="523.012" y1="326.54" x2="558.961" y2="299.284" gradientUnits="userSpaceOnUse">
<stop stop-color="#FB9C4D"/>
<stop offset="0.98" stop-color="#E16C3F"/>
</linearGradient>
<linearGradient id="paint3_linear_52_103" x1="63.4844" y1="317.225" x2="87.8548" y2="300.973" gradientUnits="userSpaceOnUse">
<stop stop-color="#FB9C4D"/>
<stop offset="0.98" stop-color="#E16C3F"/>
</linearGradient>
</defs>
</svg>
