<svg width="593" height="520" viewBox="0 0 593 520" fill="none" xmlns="http://www.w3.org/2000/svg">
<path d="M84.1 499.2C71.0333 501.533 56.8 504.333 41.4 507.6C26 510.867 12.4667 513.9 0.8 516.7C6.4 496.633 11.7667 474.233 16.9 449.5C22.5 424.3 27.8667 397.933 33 370.4C38.6 342.867 43.7333 315.1 48.4 287.1C53.5333 258.633 58.4333 231.333 63.1 205.2C72.9 143.133 82.7 78.9666 92.5 12.7L327 0.799957L306.7 86.9H196.8L175.1 211.5C189.567 211.033 203.333 210.8 216.4 210.8C227.133 210.8 238.1 210.8 249.3 210.8C260.5 210.8 269.133 210.567 275.2 210.1C273.8 223.167 271.933 236 269.6 248.6C267.733 261.2 265.867 273.8 264 286.4C257.933 286.4 249.3 286.4 238.1 286.4C226.9 285.933 215.233 285.467 203.1 285C191.433 284.533 178.133 284.067 163.2 283.6L131 490.1C115.133 492.9 99.5 495.933 84.1 499.2ZM592.874 158.3C592.874 182.567 589.374 208.467 582.374 236C575.374 263.067 565.574 290.133 552.974 317.2C540.374 343.8 524.741 369.467 506.074 394.2C487.874 418.467 467.108 439.933 443.774 458.6C420.441 476.8 394.774 491.5 366.774 502.7C339.241 513.9 309.841 519.5 278.574 519.5C272.041 519.5 265.508 519.033 258.974 518.1C252.441 517.633 245.908 516.933 239.374 516C251.974 451.6 264.341 388.833 276.474 327.7C281.141 302.033 286.041 275.433 291.174 247.9C296.308 219.9 301.208 192.367 305.874 165.3C310.541 138.233 314.974 112.333 319.174 87.6C323.841 62.8666 327.574 40.4667 330.374 20.4C350.441 16.6667 370.741 13.1666 391.274 9.89997C411.808 6.63331 432.808 4.99999 454.274 4.99999C479.474 4.99999 500.708 8.96664 517.974 16.9C535.708 24.8333 549.941 35.8 560.674 49.8C571.874 63.8 580.041 80.1333 585.174 98.8C590.308 117.467 592.874 137.3 592.874 158.3ZM427.674 103.7C422.541 131.233 417.174 157.6 411.574 182.8C405.974 208 400.374 233.433 394.774 259.1C389.174 284.767 383.574 311.6 377.974 339.6C372.374 367.6 367.008 398.167 361.874 431.3C373.074 423.833 383.808 413.8 394.074 401.2C404.808 388.133 414.841 373.2 424.174 356.4C433.508 339.6 441.908 321.867 449.374 303.2C457.308 284.533 464.074 266.333 469.674 248.6C475.274 230.867 479.474 214.3 482.274 198.9C485.541 183.5 487.174 170.2 487.174 159C487.174 141.733 482.274 128.2 472.474 118.4C463.141 108.6 448.208 103.7 427.674 103.7Z" fill="white"/>
</svg>
