<svg width="423" height="371" viewBox="0 0 423 371" fill="none" xmlns="http://www.w3.org/2000/svg">
<path d="M59.5 356C50.1667 357.667 40 359.667 29 362C18 364.333 8.33333 366.5 9.49949e-08 368.5C4 354.167 7.83333 338.167 11.5 320.5C15.5 302.5 19.3333 283.667 23 264C27 244.333 30.6667 224.5 34 204.5C37.6667 184.167 41.1667 164.667 44.5 146C51.5 101.667 58.5 55.8333 65.5 8.49998L233 -3.05176e-05L218.5 61.5H140L124.5 150.5C134.833 150.167 144.667 150 154 150C161.667 150 169.5 150 177.5 150C185.5 150 191.667 149.833 196 149.5C195 158.833 193.667 168 192 177C190.667 186 189.333 195 188 204C183.667 204 177.5 204 169.5 204C161.5 203.667 153.167 203.333 144.5 203C136.167 202.667 126.667 202.333 116 202L93 349.5C81.6667 351.5 70.5 353.667 59.5 356ZM422.91 112.5C422.91 129.833 420.41 148.333 415.41 168C410.41 187.333 403.41 206.667 394.41 226C385.41 245 374.243 263.333 360.91 281C347.91 298.333 333.077 313.667 316.41 327C299.743 340 281.41 350.5 261.41 358.5C241.743 366.5 220.743 370.5 198.41 370.5C193.743 370.5 189.077 370.167 184.41 369.5C179.743 369.167 175.077 368.667 170.41 368C179.41 322 188.243 277.167 196.91 233.5C200.243 215.167 203.743 196.167 207.41 176.5C211.077 156.5 214.577 136.833 217.91 117.5C221.243 98.1667 224.41 79.6667 227.41 62C230.743 44.3333 233.41 28.3333 235.41 14C249.743 11.3333 264.243 8.83332 278.91 6.49998C293.577 4.16665 308.577 2.99999 323.91 2.99999C341.91 2.99999 357.077 5.83332 369.41 11.5C382.077 17.1666 392.244 25 399.91 35C407.91 45 413.743 56.6667 417.41 70C421.077 83.3333 422.91 97.5 422.91 112.5ZM304.91 73.5C301.243 93.1666 297.41 112 293.41 130C289.41 148 285.41 166.167 281.41 184.5C277.41 202.833 273.41 222 269.41 242C265.41 262 261.577 283.833 257.91 307.5C265.91 302.167 273.577 295 280.91 286C288.577 276.667 295.743 266 302.41 254C309.077 242 315.077 229.333 320.41 216C326.077 202.667 330.91 189.667 334.91 177C338.91 164.333 341.91 152.5 343.91 141.5C346.243 130.5 347.41 121 347.41 113C347.41 100.667 343.91 91 336.91 84C330.243 77 319.577 73.5 304.91 73.5Z" fill="white"/>
</svg>
