<svg width="622" height="212" viewBox="0 0 622 212" fill="none" xmlns="http://www.w3.org/2000/svg">
<path d="M261.584 202.216C260.352 202.216 259.232 201.936 258.224 201.376C257.232 200.816 256.448 200.024 255.872 199C255.312 197.96 255.032 196.76 255.032 195.4C255.032 194.056 255.32 192.872 255.896 191.848C256.488 190.808 257.288 190.016 258.296 189.472C259.304 188.912 260.432 188.632 261.68 188.632C262.928 188.632 264.056 188.912 265.064 189.472C266.072 190.016 266.864 190.8 267.44 191.824C268.032 192.848 268.328 194.04 268.328 195.4C268.328 196.76 268.024 197.96 267.416 199C266.824 200.024 266.016 200.816 264.992 201.376C263.968 201.936 262.832 202.216 261.584 202.216ZM261.584 200.296C262.368 200.296 263.104 200.112 263.792 199.744C264.48 199.376 265.032 198.824 265.448 198.088C265.88 197.352 266.096 196.456 266.096 195.4C266.096 194.344 265.888 193.448 265.472 192.712C265.056 191.976 264.512 191.432 263.84 191.08C263.168 190.712 262.44 190.528 261.656 190.528C260.856 190.528 260.12 190.712 259.448 191.08C258.792 191.432 258.264 191.976 257.864 192.712C257.464 193.448 257.264 194.344 257.264 195.4C257.264 196.472 257.456 197.376 257.84 198.112C258.24 198.848 258.768 199.4 259.424 199.768C260.08 200.12 260.8 200.296 261.584 200.296ZM273.384 191.296C273.832 190.512 274.488 189.872 275.352 189.376C276.216 188.88 277.2 188.632 278.304 188.632C279.488 188.632 280.552 188.912 281.496 189.472C282.44 190.032 283.184 190.824 283.728 191.848C284.272 192.856 284.544 194.032 284.544 195.376C284.544 196.704 284.272 197.888 283.728 198.928C283.184 199.968 282.432 200.776 281.472 201.352C280.528 201.928 279.472 202.216 278.304 202.216C277.168 202.216 276.168 201.968 275.304 201.472C274.456 200.976 273.816 200.344 273.384 199.576V202H271.2V184.24H273.384V191.296ZM282.312 195.376C282.312 194.384 282.112 193.52 281.712 192.784C281.312 192.048 280.768 191.488 280.08 191.104C279.408 190.72 278.664 190.528 277.848 190.528C277.048 190.528 276.304 190.728 275.616 191.128C274.944 191.512 274.4 192.08 273.984 192.832C273.584 193.568 273.384 194.424 273.384 195.4C273.384 196.392 273.584 197.264 273.984 198.016C274.4 198.752 274.944 199.32 275.616 199.72C276.304 200.104 277.048 200.296 277.848 200.296C278.664 200.296 279.408 200.104 280.08 199.72C280.768 199.32 281.312 198.752 281.712 198.016C282.112 197.264 282.312 196.384 282.312 195.376ZM288.594 186.712C288.178 186.712 287.826 186.568 287.538 186.28C287.266 185.992 287.13 185.64 287.13 185.224C287.13 184.808 287.266 184.456 287.538 184.168C287.826 183.88 288.178 183.736 288.594 183.736C289.01 183.736 289.354 183.88 289.626 184.168C289.914 184.456 290.058 184.808 290.058 185.224C290.058 185.64 289.914 185.992 289.626 186.28C289.354 186.568 289.01 186.712 288.594 186.712ZM289.674 204.856C289.674 206.024 289.378 206.88 288.786 207.424C288.194 207.968 287.33 208.24 286.194 208.24H284.922V206.392H285.834C286.442 206.392 286.866 206.272 287.106 206.032C287.362 205.792 287.49 205.384 287.49 204.808V188.848H289.674V204.856ZM305.371 194.92C305.371 195.336 305.347 195.776 305.299 196.24H294.787C294.867 197.536 295.307 198.552 296.107 199.288C296.923 200.008 297.907 200.368 299.059 200.368C300.003 200.368 300.787 200.152 301.411 199.72C302.051 199.272 302.499 198.68 302.755 197.944H305.107C304.755 199.208 304.051 200.24 302.995 201.04C301.939 201.824 300.627 202.216 299.059 202.216C297.811 202.216 296.691 201.936 295.699 201.376C294.723 200.816 293.955 200.024 293.395 199C292.835 197.96 292.555 196.76 292.555 195.4C292.555 194.04 292.827 192.848 293.371 191.824C293.915 190.8 294.675 190.016 295.651 189.472C296.643 188.912 297.779 188.632 299.059 188.632C300.307 188.632 301.411 188.904 302.371 189.448C303.331 189.992 304.067 190.744 304.579 191.704C305.107 192.648 305.371 193.72 305.371 194.92ZM303.115 194.464C303.115 193.632 302.931 192.92 302.563 192.328C302.195 191.72 301.691 191.264 301.051 190.96C300.427 190.64 299.731 190.48 298.963 190.48C297.859 190.48 296.915 190.832 296.131 191.536C295.363 192.24 294.923 193.216 294.811 194.464H303.115ZM310.918 190.648V198.4C310.918 199.04 311.054 199.496 311.326 199.768C311.598 200.024 312.07 200.152 312.742 200.152H314.35V202H312.382C311.166 202 310.254 201.72 309.646 201.16C309.038 200.6 308.734 199.68 308.734 198.4V190.648H307.03V188.848H308.734V185.536H310.918V188.848H314.35V190.648H310.918ZM318.124 186.712C317.708 186.712 317.356 186.568 317.068 186.28C316.78 185.992 316.636 185.64 316.636 185.224C316.636 184.808 316.78 184.456 317.068 184.168C317.356 183.88 317.708 183.736 318.124 183.736C318.524 183.736 318.86 183.88 319.132 184.168C319.42 184.456 319.564 184.808 319.564 185.224C319.564 185.64 319.42 185.992 319.132 186.28C318.86 186.568 318.524 186.712 318.124 186.712ZM319.18 188.848V202H316.996V188.848H319.18ZM327.799 199.984L331.879 188.848H334.207L329.047 202H326.503L321.343 188.848H323.695L327.799 199.984ZM342.092 202.216C340.86 202.216 339.74 201.936 338.732 201.376C337.74 200.816 336.956 200.024 336.38 199C335.82 197.96 335.54 196.76 335.54 195.4C335.54 194.056 335.828 192.872 336.404 191.848C336.996 190.808 337.796 190.016 338.804 189.472C339.812 188.912 340.94 188.632 342.188 188.632C343.436 188.632 344.564 188.912 345.572 189.472C346.58 190.016 347.372 190.8 347.948 191.824C348.54 192.848 348.836 194.04 348.836 195.4C348.836 196.76 348.532 197.96 347.924 199C347.332 200.024 346.524 200.816 345.5 201.376C344.476 201.936 343.34 202.216 342.092 202.216ZM342.092 200.296C342.876 200.296 343.612 200.112 344.3 199.744C344.988 199.376 345.54 198.824 345.956 198.088C346.388 197.352 346.604 196.456 346.604 195.4C346.604 194.344 346.396 193.448 345.98 192.712C345.564 191.976 345.02 191.432 344.348 191.08C343.676 190.712 342.948 190.528 342.164 190.528C341.364 190.528 340.628 190.712 339.956 191.08C339.3 191.432 338.772 191.976 338.372 192.712C337.972 193.448 337.772 194.344 337.772 195.4C337.772 196.472 337.964 197.376 338.348 198.112C338.748 198.848 339.276 199.4 339.932 199.768C340.588 200.12 341.308 200.296 342.092 200.296Z" fill="black"/>
<path d="M107.664 12.608C108.688 12.608 109.6 12.824 110.4 13.256C111.2 13.672 111.832 14.304 112.296 15.152C112.76 16 112.992 17.032 112.992 18.248V26H110.832V18.56C110.832 17.248 110.504 16.248 109.848 15.56C109.208 14.856 108.336 14.504 107.232 14.504C106.096 14.504 105.192 14.872 104.52 15.608C103.848 16.328 103.512 17.376 103.512 18.752V26H101.352V18.56C101.352 17.248 101.024 16.248 100.368 15.56C99.728 14.856 98.856 14.504 97.752 14.504C96.616 14.504 95.712 14.872 95.04 15.608C94.368 16.328 94.032 17.376 94.032 18.752V26H91.848V12.848H94.032V14.744C94.464 14.056 95.04 13.528 95.76 13.16C96.496 12.792 97.304 12.608 98.184 12.608C99.288 12.608 100.264 12.856 101.112 13.352C101.96 13.848 102.592 14.576 103.008 15.536C103.376 14.608 103.984 13.888 104.832 13.376C105.68 12.864 106.624 12.608 107.664 12.608ZM122.311 26.216C121.079 26.216 119.959 25.936 118.951 25.376C117.959 24.816 117.175 24.024 116.599 23C116.039 21.96 115.759 20.76 115.759 19.4C115.759 18.056 116.047 16.872 116.623 15.848C117.215 14.808 118.015 14.016 119.023 13.472C120.031 12.912 121.159 12.632 122.407 12.632C123.655 12.632 124.783 12.912 125.791 13.472C126.799 14.016 127.591 14.8 128.167 15.824C128.759 16.848 129.055 18.04 129.055 19.4C129.055 20.76 128.751 21.96 128.143 23C127.551 24.024 126.743 24.816 125.719 25.376C124.695 25.936 123.559 26.216 122.311 26.216ZM122.311 24.296C123.095 24.296 123.831 24.112 124.519 23.744C125.207 23.376 125.759 22.824 126.175 22.088C126.607 21.352 126.823 20.456 126.823 19.4C126.823 18.344 126.615 17.448 126.199 16.712C125.783 15.976 125.239 15.432 124.567 15.08C123.895 14.712 123.167 14.528 122.383 14.528C121.583 14.528 120.847 14.712 120.175 15.08C119.519 15.432 118.991 15.976 118.591 16.712C118.191 17.448 117.991 18.344 117.991 19.4C117.991 20.472 118.183 21.376 118.567 22.112C118.967 22.848 119.495 23.4 120.151 23.768C120.807 24.12 121.527 24.296 122.311 24.296ZM134.59 14.648V22.4C134.59 23.04 134.726 23.496 134.998 23.768C135.27 24.024 135.742 24.152 136.414 24.152H138.022V26H136.054C134.838 26 133.926 25.72 133.318 25.16C132.71 24.6 132.406 23.68 132.406 22.4V14.648H130.702V12.848H132.406V9.536H134.59V12.848H138.022V14.648H134.59ZM141.796 10.712C141.38 10.712 141.028 10.568 140.74 10.28C140.452 9.992 140.308 9.64 140.308 9.224C140.308 8.808 140.452 8.456 140.74 8.168C141.028 7.88 141.38 7.736 141.796 7.736C142.196 7.736 142.532 7.88 142.804 8.168C143.092 8.456 143.236 8.808 143.236 9.224C143.236 9.64 143.092 9.992 142.804 10.28C142.532 10.568 142.196 10.712 141.796 10.712ZM142.852 12.848V26H140.668V12.848H142.852ZM151.471 23.984L155.551 12.848H157.879L152.719 26H150.175L145.015 12.848H147.367L151.471 23.984ZM159.212 19.376C159.212 18.032 159.484 16.856 160.028 15.848C160.572 14.824 161.316 14.032 162.26 13.472C163.22 12.912 164.284 12.632 165.452 12.632C166.604 12.632 167.604 12.88 168.452 13.376C169.3 13.872 169.932 14.496 170.348 15.248V12.848H172.556V26H170.348V23.552C169.916 24.32 169.268 24.96 168.404 25.472C167.556 25.968 166.564 26.216 165.428 26.216C164.26 26.216 163.204 25.928 162.26 25.352C161.316 24.776 160.572 23.968 160.028 22.928C159.484 21.888 159.212 20.704 159.212 19.376ZM170.348 19.4C170.348 18.408 170.148 17.544 169.748 16.808C169.348 16.072 168.804 15.512 168.116 15.128C167.444 14.728 166.7 14.528 165.884 14.528C165.068 14.528 164.324 14.72 163.652 15.104C162.98 15.488 162.444 16.048 162.044 16.784C161.644 17.52 161.444 18.384 161.444 19.376C161.444 20.384 161.644 21.264 162.044 22.016C162.444 22.752 162.98 23.32 163.652 23.72C164.324 24.104 165.068 24.296 165.884 24.296C166.7 24.296 167.444 24.104 168.116 23.72C168.804 23.32 169.348 22.752 169.748 22.016C170.148 21.264 170.348 20.392 170.348 19.4ZM175.43 19.4C175.43 18.04 175.702 16.856 176.246 15.848C176.79 14.824 177.542 14.032 178.502 13.472C179.478 12.912 180.59 12.632 181.838 12.632C183.454 12.632 184.782 13.024 185.822 13.808C186.878 14.592 187.574 15.68 187.91 17.072H185.558C185.334 16.272 184.894 15.64 184.238 15.176C183.598 14.712 182.798 14.48 181.838 14.48C180.59 14.48 179.582 14.912 178.814 15.776C178.046 16.624 177.662 17.832 177.662 19.4C177.662 20.984 178.046 22.208 178.814 23.072C179.582 23.936 180.59 24.368 181.838 24.368C182.798 24.368 183.598 24.144 184.238 23.696C184.878 23.248 185.318 22.608 185.558 21.776H187.91C187.558 23.12 186.854 24.2 185.798 25.016C184.742 25.816 183.422 26.216 181.838 26.216C180.59 26.216 179.478 25.936 178.502 25.376C177.542 24.816 176.79 24.024 176.246 23C175.702 21.976 175.43 20.776 175.43 19.4ZM191.953 10.712C191.537 10.712 191.185 10.568 190.897 10.28C190.609 9.992 190.465 9.64 190.465 9.224C190.465 8.808 190.609 8.456 190.897 8.168C191.185 7.88 191.537 7.736 191.953 7.736C192.353 7.736 192.689 7.88 192.961 8.168C193.249 8.456 193.393 8.808 193.393 9.224C193.393 9.64 193.249 9.992 192.961 10.28C192.689 10.568 192.353 10.712 191.953 10.712ZM193.009 12.848V26H190.825V12.848H193.009ZM202.467 26.216C201.235 26.216 200.115 25.936 199.107 25.376C198.115 24.816 197.331 24.024 196.755 23C196.195 21.96 195.915 20.76 195.915 19.4C195.915 18.056 196.203 16.872 196.779 15.848C197.371 14.808 198.171 14.016 199.179 13.472C200.187 12.912 201.315 12.632 202.563 12.632C203.811 12.632 204.939 12.912 205.947 13.472C206.955 14.016 207.747 14.8 208.323 15.824C208.915 16.848 209.211 18.04 209.211 19.4C209.211 20.76 208.907 21.96 208.299 23C207.707 24.024 206.899 24.816 205.875 25.376C204.851 25.936 203.715 26.216 202.467 26.216ZM202.467 24.296C203.251 24.296 203.987 24.112 204.675 23.744C205.363 23.376 205.915 22.824 206.331 22.088C206.763 21.352 206.979 20.456 206.979 19.4C206.979 18.344 206.771 17.448 206.355 16.712C205.939 15.976 205.395 15.432 204.723 15.08C204.051 14.712 203.323 14.528 202.539 14.528C201.739 14.528 201.003 14.712 200.331 15.08C199.675 15.432 199.147 15.976 198.747 16.712C198.347 17.448 198.147 18.344 198.147 19.4C198.147 20.472 198.339 21.376 198.723 22.112C199.123 22.848 199.651 23.4 200.307 23.768C200.963 24.12 201.683 24.296 202.467 24.296ZM218.49 12.608C220.09 12.608 221.386 13.096 222.378 14.072C223.37 15.032 223.866 16.424 223.866 18.248V26H221.706V18.56C221.706 17.248 221.378 16.248 220.722 15.56C220.066 14.856 219.17 14.504 218.034 14.504C216.882 14.504 215.962 14.864 215.274 15.584C214.602 16.304 214.266 17.352 214.266 18.728V26H212.082V12.848H214.266V14.72C214.698 14.048 215.282 13.528 216.018 13.16C216.77 12.792 217.594 12.608 218.49 12.608Z" fill="black"/>
<path d="M10.584 92.908C13.32 92.908 15.684 93.424 17.676 94.456C19.692 95.464 21.228 96.916 22.284 98.812C23.364 100.708 23.904 102.94 23.904 105.508C23.904 108.076 23.364 110.308 22.284 112.204C21.228 114.076 19.692 115.516 17.676 116.524C15.684 117.508 13.32 118 10.584 118H2.772V92.908H10.584ZM10.584 115.3C13.824 115.3 16.296 114.448 18 112.744C19.704 111.016 20.556 108.604 20.556 105.508C20.556 102.388 19.692 99.952 17.964 98.2C16.26 96.448 13.8 95.572 10.584 95.572H6.048V115.3H10.584ZM46.2251 107.38C46.2251 108.004 46.1891 108.664 46.1171 109.36H30.3491C30.4691 111.304 31.1291 112.828 32.3291 113.932C33.5531 115.012 35.0291 115.552 36.7571 115.552C38.1731 115.552 39.3491 115.228 40.2851 114.58C41.2451 113.908 41.9171 113.02 42.3011 111.916H45.8291C45.3011 113.812 44.2451 115.36 42.6611 116.56C41.0771 117.736 39.1091 118.324 36.7571 118.324C34.8851 118.324 33.2051 117.904 31.7171 117.064C30.2531 116.224 29.1011 115.036 28.2611 113.5C27.4211 111.94 27.0011 110.14 27.0011 108.1C27.0011 106.06 27.4091 104.272 28.2251 102.736C29.0411 101.2 30.1811 100.024 31.6451 99.208C33.1331 98.368 34.8371 97.948 36.7571 97.948C38.6291 97.948 40.2851 98.356 41.7251 99.172C43.1651 99.988 44.2691 101.116 45.0371 102.556C45.8291 103.972 46.2251 105.58 46.2251 107.38ZM42.8411 106.696C42.8411 105.448 42.5651 104.38 42.0131 103.492C41.4611 102.58 40.7051 101.896 39.7451 101.44C38.8091 100.96 37.7651 100.72 36.6131 100.72C34.9571 100.72 33.5411 101.248 32.3651 102.304C31.2131 103.36 30.5531 104.824 30.3851 106.696H42.8411ZM58.5773 100.972H54.4373V118H51.1613V100.972H48.6053V98.272H51.1613V96.868C51.1613 94.66 51.7253 93.052 52.8533 92.044C54.0053 91.012 55.8413 90.496 58.3613 90.496V93.232C56.9213 93.232 55.9013 93.52 55.3013 94.096C54.7253 94.648 54.4373 95.572 54.4373 96.868V98.272H58.5773V100.972ZM64.089 95.068C63.465 95.068 62.937 94.852 62.505 94.42C62.073 93.988 61.857 93.46 61.857 92.836C61.857 92.212 62.073 91.684 62.505 91.252C62.937 90.82 63.465 90.604 64.089 90.604C64.689 90.604 65.193 90.82 65.601 91.252C66.033 91.684 66.249 92.212 66.249 92.836C66.249 93.46 66.033 93.988 65.601 94.42C65.193 94.852 64.689 95.068 64.089 95.068ZM65.673 98.272V118H62.397V98.272H65.673ZM80.8684 97.912C83.2684 97.912 85.2124 98.644 86.7004 100.108C88.1884 101.548 88.9324 103.636 88.9324 106.372V118H85.6924V106.84C85.6924 104.872 85.2004 103.372 84.2164 102.34C83.2324 101.284 81.8884 100.756 80.1844 100.756C78.4564 100.756 77.0764 101.296 76.0444 102.376C75.0364 103.456 74.5324 105.028 74.5324 107.092V118H71.2564V98.272H74.5324V101.08C75.1804 100.072 76.0564 99.292 77.1604 98.74C78.2884 98.188 79.5244 97.912 80.8684 97.912ZM95.9757 95.068C95.3517 95.068 94.8237 94.852 94.3917 94.42C93.9597 93.988 93.7437 93.46 93.7437 92.836C93.7437 92.212 93.9597 91.684 94.3917 91.252C94.8237 90.82 95.3517 90.604 95.9757 90.604C96.5757 90.604 97.0797 90.82 97.4877 91.252C97.9197 91.684 98.1357 92.212 98.1357 92.836C98.1357 93.46 97.9197 93.988 97.4877 94.42C97.0797 94.852 96.5757 95.068 95.9757 95.068ZM97.5597 98.272V118H94.2837V98.272H97.5597ZM106.419 101.476C106.995 100.348 107.811 99.472 108.867 98.848C109.947 98.224 111.255 97.912 112.791 97.912V101.296H111.927C108.255 101.296 106.419 103.288 106.419 107.272V118H103.143V98.272H106.419V101.476ZM144.17 107.38C144.17 108.004 144.134 108.664 144.062 109.36H128.294C128.414 111.304 129.074 112.828 130.274 113.932C131.498 115.012 132.974 115.552 134.702 115.552C136.118 115.552 137.294 115.228 138.23 114.58C139.19 113.908 139.862 113.02 140.246 111.916H143.774C143.246 113.812 142.19 115.36 140.606 116.56C139.022 117.736 137.054 118.324 134.702 118.324C132.83 118.324 131.15 117.904 129.662 117.064C128.198 116.224 127.046 115.036 126.206 113.5C125.366 111.94 124.946 110.14 124.946 108.1C124.946 106.06 125.354 104.272 126.17 102.736C126.986 101.2 128.126 100.024 129.59 99.208C131.078 98.368 132.782 97.948 134.702 97.948C136.574 97.948 138.23 98.356 139.67 99.172C141.11 99.988 142.214 101.116 142.982 102.556C143.774 103.972 144.17 105.58 144.17 107.38ZM140.786 106.696C140.786 105.448 140.51 104.38 139.958 103.492C139.406 102.58 138.65 101.896 137.69 101.44C136.754 100.96 135.71 100.72 134.558 100.72C132.902 100.72 131.486 101.248 130.31 102.304C129.158 103.36 128.498 104.824 128.33 106.696H140.786ZM151.771 91.36V118H148.495V91.36H151.771ZM170.228 101.908C170.876 100.78 171.836 99.844 173.108 99.1C174.404 98.332 175.904 97.948 177.608 97.948C179.36 97.948 180.944 98.368 182.36 99.208C183.8 100.048 184.928 101.236 185.744 102.772C186.56 104.284 186.968 106.048 186.968 108.064C186.968 110.056 186.56 111.832 185.744 113.392C184.928 114.952 183.8 116.164 182.36 117.028C180.944 117.892 179.36 118.324 177.608 118.324C175.928 118.324 174.44 117.952 173.144 117.208C171.872 116.44 170.9 115.492 170.228 114.364V127.36H166.952V98.272H170.228V101.908ZM183.62 108.064C183.62 106.576 183.32 105.28 182.72 104.176C182.12 103.072 181.304 102.232 180.272 101.656C179.264 101.08 178.148 100.792 176.924 100.792C175.724 100.792 174.608 101.092 173.576 101.692C172.568 102.268 171.752 103.12 171.128 104.248C170.528 105.352 170.228 106.636 170.228 108.1C170.228 109.588 170.528 110.896 171.128 112.024C171.752 113.128 172.568 113.98 173.576 114.58C174.608 115.156 175.724 115.444 176.924 115.444C178.148 115.444 179.264 115.156 180.272 114.58C181.304 113.98 182.12 113.128 182.72 112.024C183.32 110.896 183.62 109.576 183.62 108.064ZM199.884 118.324C198.036 118.324 196.356 117.904 194.844 117.064C193.356 116.224 192.18 115.036 191.316 113.5C190.476 111.94 190.056 110.14 190.056 108.1C190.056 106.084 190.488 104.308 191.352 102.772C192.24 101.212 193.44 100.024 194.952 99.208C196.464 98.368 198.156 97.948 200.028 97.948C201.9 97.948 203.592 98.368 205.104 99.208C206.616 100.024 207.804 101.2 208.668 102.736C209.556 104.272 210 106.06 210 108.1C210 110.14 209.544 111.94 208.632 113.5C207.744 115.036 206.532 116.224 204.996 117.064C203.46 117.904 201.756 118.324 199.884 118.324ZM199.884 115.444C201.06 115.444 202.164 115.168 203.196 114.616C204.228 114.064 205.056 113.236 205.68 112.132C206.328 111.028 206.652 109.684 206.652 108.1C206.652 106.516 206.34 105.172 205.716 104.068C205.092 102.964 204.276 102.148 203.268 101.62C202.26 101.068 201.168 100.792 199.992 100.792C198.792 100.792 197.688 101.068 196.68 101.62C195.696 102.148 194.904 102.964 194.304 104.068C193.704 105.172 193.404 106.516 193.404 108.1C193.404 109.708 193.692 111.064 194.268 112.168C194.868 113.272 195.66 114.1 196.644 114.652C197.628 115.18 198.708 115.444 199.884 115.444ZM217.583 101.476C218.159 100.348 218.975 99.472 220.031 98.848C221.111 98.224 222.419 97.912 223.955 97.912V101.296H223.091C219.419 101.296 217.583 103.288 217.583 107.272V118H214.307V98.272H217.583V101.476ZM226.513 108.064C226.513 106.048 226.921 104.284 227.737 102.772C228.553 101.236 229.669 100.048 231.085 99.208C232.525 98.368 234.133 97.948 235.909 97.948C237.613 97.948 239.101 98.332 240.373 99.1C241.669 99.844 242.617 100.768 243.217 101.872V98.272H246.529V127.36H243.217V114.364C242.593 115.468 241.633 116.404 240.337 117.172C239.041 117.94 237.529 118.324 235.801 118.324C234.073 118.324 232.501 117.892 231.085 117.028C229.669 116.164 228.553 114.952 227.737 113.392C226.921 111.832 226.513 110.056 226.513 108.064ZM243.217 108.1C243.217 106.612 242.917 105.316 242.317 104.212C241.717 103.108 240.901 102.268 239.869 101.692C238.861 101.092 237.745 100.792 236.521 100.792C235.297 100.792 234.181 101.08 233.173 101.656C232.165 102.232 231.361 103.072 230.761 104.176C230.161 105.28 229.861 106.576 229.861 108.064C229.861 109.576 230.161 110.896 230.761 112.024C231.361 113.128 232.165 113.98 233.173 114.58C234.181 115.156 235.297 115.444 236.521 115.444C237.745 115.444 238.861 115.156 239.869 114.58C240.901 113.98 241.717 113.128 242.317 112.024C242.917 110.896 243.217 109.588 243.217 108.1ZM269.561 98.272V118H266.285V115.084C265.661 116.092 264.785 116.884 263.657 117.46C262.553 118.012 261.329 118.288 259.985 118.288C258.449 118.288 257.069 117.976 255.845 117.352C254.621 116.704 253.649 115.744 252.929 114.472C252.233 113.2 251.885 111.652 251.885 109.828V98.272H255.125V109.396C255.125 111.34 255.617 112.84 256.601 113.896C257.585 114.928 258.929 115.444 260.633 115.444C262.385 115.444 263.765 114.904 264.773 113.824C265.781 112.744 266.285 111.172 266.285 109.108V98.272H269.561ZM293.092 107.38C293.092 108.004 293.056 108.664 292.984 109.36H277.216C277.336 111.304 277.996 112.828 279.196 113.932C280.42 115.012 281.896 115.552 283.624 115.552C285.04 115.552 286.216 115.228 287.152 114.58C288.112 113.908 288.784 113.02 289.168 111.916H292.696C292.168 113.812 291.112 115.36 289.528 116.56C287.944 117.736 285.976 118.324 283.624 118.324C281.752 118.324 280.072 117.904 278.584 117.064C277.12 116.224 275.968 115.036 275.128 113.5C274.288 111.94 273.868 110.14 273.868 108.1C273.868 106.06 274.276 104.272 275.092 102.736C275.908 101.2 277.048 100.024 278.512 99.208C280 98.368 281.704 97.948 283.624 97.948C285.496 97.948 287.152 98.356 288.592 99.172C290.032 99.988 291.136 101.116 291.904 102.556C292.696 103.972 293.092 105.58 293.092 107.38ZM289.708 106.696C289.708 105.448 289.432 104.38 288.88 103.492C288.328 102.58 287.572 101.896 286.612 101.44C285.676 100.96 284.632 100.72 283.48 100.72C281.824 100.72 280.408 101.248 279.232 102.304C278.08 103.36 277.42 104.824 277.252 106.696H289.708ZM287.008 92.692L279.34 96.796V94.348L287.008 89.848V92.692ZM300.801 113.464L296.769 123.148H294.573L297.201 113.464H300.801ZM332.151 107.38C332.151 108.004 332.115 108.664 332.043 109.36H316.275C316.395 111.304 317.055 112.828 318.255 113.932C319.479 115.012 320.955 115.552 322.683 115.552C324.099 115.552 325.275 115.228 326.211 114.58C327.171 113.908 327.843 113.02 328.227 111.916H331.755C331.227 113.812 330.171 115.36 328.587 116.56C327.003 117.736 325.035 118.324 322.683 118.324C320.811 118.324 319.131 117.904 317.643 117.064C316.179 116.224 315.027 115.036 314.187 113.5C313.347 111.94 312.927 110.14 312.927 108.1C312.927 106.06 313.335 104.272 314.151 102.736C314.967 101.2 316.107 100.024 317.571 99.208C319.059 98.368 320.763 97.948 322.683 97.948C324.555 97.948 326.211 98.356 327.651 99.172C329.091 99.988 330.195 101.116 330.963 102.556C331.755 103.972 332.151 105.58 332.151 107.38ZM328.767 106.696C328.767 105.448 328.491 104.38 327.939 103.492C327.387 102.58 326.631 101.896 325.671 101.44C324.735 100.96 323.691 100.72 322.539 100.72C320.883 100.72 319.467 101.248 318.291 102.304C317.139 103.36 316.479 104.824 316.311 106.696H328.767ZM339.751 91.36V118H336.475V91.36H339.751ZM353.708 108.064C353.708 106.048 354.116 104.284 354.932 102.772C355.748 101.236 356.864 100.048 358.28 99.208C359.72 98.368 361.328 97.948 363.104 97.948C364.808 97.948 366.296 98.332 367.568 99.1C368.864 99.844 369.812 100.768 370.412 101.872V98.272H373.724V127.36H370.412V114.364C369.788 115.468 368.828 116.404 367.532 117.172C366.236 117.94 364.724 118.324 362.996 118.324C361.268 118.324 359.696 117.892 358.28 117.028C356.864 116.164 355.748 114.952 354.932 113.392C354.116 111.832 353.708 110.056 353.708 108.064ZM370.412 108.1C370.412 106.612 370.112 105.316 369.512 104.212C368.912 103.108 368.096 102.268 367.064 101.692C366.056 101.092 364.94 100.792 363.716 100.792C362.492 100.792 361.376 101.08 360.368 101.656C359.36 102.232 358.556 103.072 357.956 104.176C357.356 105.28 357.056 106.576 357.056 108.064C357.056 109.576 357.356 110.896 357.956 112.024C358.556 113.128 359.36 113.98 360.368 114.58C361.376 115.156 362.492 115.444 363.716 115.444C364.94 115.444 366.056 115.156 367.064 114.58C368.096 113.98 368.912 113.128 369.512 112.024C370.112 110.896 370.412 109.588 370.412 108.1ZM396.756 98.272V118H393.48V115.084C392.856 116.092 391.98 116.884 390.852 117.46C389.748 118.012 388.524 118.288 387.18 118.288C385.644 118.288 384.264 117.976 383.04 117.352C381.816 116.704 380.844 115.744 380.124 114.472C379.428 113.2 379.08 111.652 379.08 109.828V98.272H382.32V109.396C382.32 111.34 382.812 112.84 383.796 113.896C384.78 114.928 386.124 115.444 387.828 115.444C389.58 115.444 390.96 114.904 391.968 113.824C392.976 112.744 393.48 111.172 393.48 109.108V98.272H396.756ZM420.288 107.38C420.288 108.004 420.252 108.664 420.18 109.36H404.412C404.532 111.304 405.192 112.828 406.392 113.932C407.616 115.012 409.092 115.552 410.82 115.552C412.236 115.552 413.412 115.228 414.348 114.58C415.308 113.908 415.98 113.02 416.364 111.916H419.892C419.364 113.812 418.308 115.36 416.724 116.56C415.14 117.736 413.172 118.324 410.82 118.324C408.948 118.324 407.268 117.904 405.78 117.064C404.316 116.224 403.164 115.036 402.324 113.5C401.484 111.94 401.064 110.14 401.064 108.1C401.064 106.06 401.472 104.272 402.288 102.736C403.104 101.2 404.244 100.024 405.708 99.208C407.196 98.368 408.9 97.948 410.82 97.948C412.692 97.948 414.348 98.356 415.788 99.172C417.228 99.988 418.332 101.116 419.1 102.556C419.892 103.972 420.288 105.58 420.288 107.38ZM416.904 106.696C416.904 105.448 416.628 104.38 416.076 103.492C415.524 102.58 414.768 101.896 413.808 101.44C412.872 100.96 411.828 100.72 410.676 100.72C409.02 100.72 407.604 101.248 406.428 102.304C405.276 103.36 404.616 104.824 404.448 106.696H416.904ZM414.204 92.692L406.536 96.796V94.348L414.204 89.848V92.692ZM427.996 113.464L423.964 123.148H421.768L424.396 113.464H427.996ZM458.338 98.272L446.458 127.288H443.074L446.962 117.784L439.006 98.272H442.642L448.834 114.256L454.954 98.272H458.338ZM489.229 107.38C489.229 108.004 489.193 108.664 489.121 109.36H473.353C473.473 111.304 474.133 112.828 475.333 113.932C476.557 115.012 478.033 115.552 479.761 115.552C481.177 115.552 482.353 115.228 483.289 114.58C484.249 113.908 484.921 113.02 485.305 111.916H488.833C488.305 113.812 487.249 115.36 485.665 116.56C484.081 117.736 482.113 118.324 479.761 118.324C477.889 118.324 476.209 117.904 474.721 117.064C473.257 116.224 472.105 115.036 471.265 113.5C470.425 111.94 470.005 110.14 470.005 108.1C470.005 106.06 470.413 104.272 471.229 102.736C472.045 101.2 473.185 100.024 474.649 99.208C476.137 98.368 477.841 97.948 479.761 97.948C481.633 97.948 483.289 98.356 484.729 99.172C486.169 99.988 487.273 101.116 488.041 102.556C488.833 103.972 489.229 105.58 489.229 107.38ZM485.845 106.696C485.845 105.448 485.569 104.38 485.017 103.492C484.465 102.58 483.709 101.896 482.749 101.44C481.813 100.96 480.769 100.72 479.617 100.72C477.961 100.72 476.545 101.248 475.369 102.304C474.217 103.36 473.557 104.824 473.389 106.696H485.845ZM496.829 91.36V118H493.553V91.36H496.829ZM510.786 108.1C510.786 106.06 511.194 104.284 512.01 102.772C512.826 101.236 513.954 100.048 515.394 99.208C516.858 98.368 518.526 97.948 520.398 97.948C522.822 97.948 524.814 98.536 526.374 99.712C527.958 100.888 529.002 102.52 529.506 104.608H525.978C525.642 103.408 524.982 102.46 523.998 101.764C523.038 101.068 521.838 100.72 520.398 100.72C518.526 100.72 517.014 101.368 515.862 102.664C514.71 103.936 514.134 105.748 514.134 108.1C514.134 110.476 514.71 112.312 515.862 113.608C517.014 114.904 518.526 115.552 520.398 115.552C521.838 115.552 523.038 115.216 523.998 114.544C524.958 113.872 525.618 112.912 525.978 111.664H529.506C528.978 113.68 527.922 115.3 526.338 116.524C524.754 117.724 522.774 118.324 520.398 118.324C518.526 118.324 516.858 117.904 515.394 117.064C513.954 116.224 512.826 115.036 512.01 113.5C511.194 111.964 510.786 110.164 510.786 108.1ZM542.481 118.324C540.633 118.324 538.953 117.904 537.441 117.064C535.953 116.224 534.777 115.036 533.913 113.5C533.073 111.94 532.653 110.14 532.653 108.1C532.653 106.084 533.085 104.308 533.949 102.772C534.837 101.212 536.037 100.024 537.549 99.208C539.061 98.368 540.753 97.948 542.625 97.948C544.497 97.948 546.189 98.368 547.701 99.208C549.213 100.024 550.401 101.2 551.265 102.736C552.153 104.272 552.597 106.06 552.597 108.1C552.597 110.14 552.141 111.94 551.229 113.5C550.341 115.036 549.129 116.224 547.593 117.064C546.057 117.904 544.353 118.324 542.481 118.324ZM542.481 115.444C543.657 115.444 544.761 115.168 545.793 114.616C546.825 114.064 547.653 113.236 548.277 112.132C548.925 111.028 549.249 109.684 549.249 108.1C549.249 106.516 548.937 105.172 548.313 104.068C547.689 102.964 546.873 102.148 545.865 101.62C544.857 101.068 543.765 100.792 542.589 100.792C541.389 100.792 540.285 101.068 539.277 101.62C538.293 102.148 537.501 102.964 536.901 104.068C536.301 105.172 536.001 106.516 536.001 108.1C536.001 109.708 536.289 111.064 536.865 112.168C537.465 113.272 538.257 114.1 539.241 114.652C540.225 115.18 541.305 115.444 542.481 115.444ZM546.153 92.44L538.485 96.544V94.096L546.153 89.596V92.44ZM580.629 97.912C582.165 97.912 583.533 98.236 584.733 98.884C585.933 99.508 586.881 100.456 587.577 101.728C588.273 103 588.621 104.548 588.621 106.372V118H585.381V106.84C585.381 104.872 584.889 103.372 583.905 102.34C582.945 101.284 581.637 100.756 579.981 100.756C578.277 100.756 576.921 101.308 575.913 102.412C574.905 103.492 574.401 105.064 574.401 107.128V118H571.161V106.84C571.161 104.872 570.669 103.372 569.685 102.34C568.725 101.284 567.417 100.756 565.761 100.756C564.057 100.756 562.701 101.308 561.693 102.412C560.685 103.492 560.181 105.064 560.181 107.128V118H556.905V98.272H560.181V101.116C560.829 100.084 561.693 99.292 562.773 98.74C563.877 98.188 565.089 97.912 566.409 97.912C568.065 97.912 569.529 98.284 570.801 99.028C572.073 99.772 573.021 100.864 573.645 102.304C574.197 100.912 575.109 99.832 576.381 99.064C577.653 98.296 579.069 97.912 580.629 97.912ZM602.599 118.324C600.751 118.324 599.071 117.904 597.559 117.064C596.071 116.224 594.895 115.036 594.031 113.5C593.191 111.94 592.771 110.14 592.771 108.1C592.771 106.084 593.203 104.308 594.067 102.772C594.955 101.212 596.155 100.024 597.667 99.208C599.179 98.368 600.871 97.948 602.743 97.948C604.615 97.948 606.307 98.368 607.819 99.208C609.331 100.024 610.519 101.2 611.383 102.736C612.271 104.272 612.715 106.06 612.715 108.1C612.715 110.14 612.259 111.94 611.347 113.5C610.459 115.036 609.247 116.224 607.711 117.064C606.175 117.904 604.471 118.324 602.599 118.324ZM602.599 115.444C603.775 115.444 604.879 115.168 605.911 114.616C606.943 114.064 607.771 113.236 608.395 112.132C609.043 111.028 609.367 109.684 609.367 108.1C609.367 106.516 609.055 105.172 608.431 104.068C607.807 102.964 606.991 102.148 605.983 101.62C604.975 101.068 603.883 100.792 602.707 100.792C601.507 100.792 600.403 101.068 599.395 101.62C598.411 102.148 597.619 102.964 597.019 104.068C596.419 105.172 596.119 106.516 596.119 108.1C596.119 109.708 596.407 111.064 596.983 112.168C597.583 113.272 598.375 114.1 599.359 114.652C600.343 115.18 601.423 115.444 602.599 115.444ZM618.066 118.216C617.442 118.216 616.914 118 616.482 117.568C616.05 117.136 615.834 116.608 615.834 115.984C615.834 115.36 616.05 114.832 616.482 114.4C616.914 113.968 617.442 113.752 618.066 113.752C618.666 113.752 619.17 113.968 619.578 114.4C620.01 114.832 620.226 115.36 620.226 115.984C620.226 116.608 620.01 117.136 619.578 117.568C619.17 118 618.666 118.216 618.066 118.216Z" fill="black"/>
<path d="M215.14 41.5066C214.315 41.4292 213.584 42.0352 213.507 42.86L212.246 56.3011C212.169 57.1259 212.775 57.8572 213.6 57.9345C214.425 58.0118 215.156 57.4059 215.233 56.5811L216.353 44.6335L228.301 45.7536C229.126 45.8309 229.857 45.2249 229.935 44.4001C230.012 43.5753 229.406 42.844 228.581 42.7667L215.14 41.5066ZM245.155 77.043L216.155 42.043L213.845 43.957L242.845 78.957L245.155 77.043Z" fill="black"/>
<path d="M326.511 165.18C326.611 166.003 327.358 166.589 328.18 166.489L341.582 164.865C342.405 164.765 342.991 164.017 342.891 163.195C342.791 162.373 342.044 161.787 341.221 161.886L329.309 163.33L327.865 151.418C327.765 150.595 327.017 150.009 326.195 150.109C325.373 150.209 324.787 150.956 324.886 151.779L326.511 165.18ZM355.819 127.075L326.819 164.075L329.181 165.925L358.181 128.925L355.819 127.075Z" fill="black"/>
<path d="M510.955 44.5007C510.127 44.5258 509.476 45.2174 509.501 46.0454L509.91 59.5392C509.935 60.3673 510.626 61.0182 511.454 60.9931C512.282 60.968 512.933 60.2764 512.908 59.4484L512.545 47.4539L524.539 47.0904C525.367 47.0653 526.018 46.3737 525.993 45.5457C525.968 44.7176 525.276 44.0667 524.448 44.0918L510.955 44.5007ZM546.028 76.9077L512.028 44.9077L509.972 47.0923L543.972 79.0923L546.028 76.9077Z" fill="black"/>
<path d="M459.032 15.272C459.464 14.52 460.104 13.896 460.952 13.4C461.816 12.888 462.816 12.632 463.952 12.632C465.12 12.632 466.176 12.912 467.12 13.472C468.08 14.032 468.832 14.824 469.376 15.848C469.92 16.856 470.192 18.032 470.192 19.376C470.192 20.704 469.92 21.888 469.376 22.928C468.832 23.968 468.08 24.776 467.12 25.352C466.176 25.928 465.12 26.216 463.952 26.216C462.832 26.216 461.84 25.968 460.976 25.472C460.128 24.96 459.48 24.328 459.032 23.576V32.24H456.848V12.848H459.032V15.272ZM467.96 19.376C467.96 18.384 467.76 17.52 467.36 16.784C466.96 16.048 466.416 15.488 465.728 15.104C465.056 14.72 464.312 14.528 463.496 14.528C462.696 14.528 461.952 14.728 461.264 15.128C460.592 15.512 460.048 16.08 459.632 16.832C459.232 17.568 459.032 18.424 459.032 19.4C459.032 20.392 459.232 21.264 459.632 22.016C460.048 22.752 460.592 23.32 461.264 23.72C461.952 24.104 462.696 24.296 463.496 24.296C464.312 24.296 465.056 24.104 465.728 23.72C466.416 23.32 466.96 22.752 467.36 22.016C467.76 21.264 467.96 20.384 467.96 19.376ZM475.251 8.24V26H473.067V8.24H475.251ZM478.157 19.376C478.157 18.032 478.429 16.856 478.973 15.848C479.517 14.824 480.261 14.032 481.205 13.472C482.165 12.912 483.229 12.632 484.397 12.632C485.549 12.632 486.549 12.88 487.397 13.376C488.245 13.872 488.877 14.496 489.293 15.248V12.848H491.501V26H489.293V23.552C488.861 24.32 488.213 24.96 487.349 25.472C486.501 25.968 485.509 26.216 484.373 26.216C483.205 26.216 482.149 25.928 481.205 25.352C480.261 24.776 479.517 23.968 478.973 22.928C478.429 21.888 478.157 20.704 478.157 19.376ZM489.293 19.4C489.293 18.408 489.093 17.544 488.693 16.808C488.293 16.072 487.749 15.512 487.061 15.128C486.389 14.728 485.645 14.528 484.829 14.528C484.013 14.528 483.269 14.72 482.597 15.104C481.925 15.488 481.389 16.048 480.989 16.784C480.589 17.52 480.389 18.384 480.389 19.376C480.389 20.384 480.589 21.264 480.989 22.016C481.389 22.752 481.925 23.32 482.597 23.72C483.269 24.104 484.013 24.296 484.829 24.296C485.645 24.296 486.389 24.104 487.061 23.72C487.749 23.32 488.293 22.752 488.693 22.016C489.093 21.264 489.293 20.392 489.293 19.4ZM501.6 12.608C503.2 12.608 504.496 13.096 505.488 14.072C506.48 15.032 506.976 16.424 506.976 18.248V26H504.816V18.56C504.816 17.248 504.488 16.248 503.832 15.56C503.176 14.856 502.28 14.504 501.144 14.504C499.992 14.504 499.072 14.864 498.384 15.584C497.712 16.304 497.376 17.352 497.376 18.728V26H495.192V12.848H497.376V14.72C497.808 14.048 498.392 13.528 499.128 13.16C499.88 12.792 500.704 12.608 501.6 12.608Z" fill="black"/>
</svg>
