<svg width="176" height="38" viewBox="0 0 176 38" fill="none" xmlns="http://www.w3.org/2000/svg">
<path d="M14.6406 11V14.8086H8.34375V37H3.92578V14.8086H0.548828V11H3.92578V6.9375C3.92578 4.6862 4.52669 3.01042 5.72852 1.91016C6.94727 0.792969 8.54688 0.234375 10.5273 0.234375C11.6445 0.234375 12.6094 0.310547 13.4219 0.462891C14.2344 0.615234 14.903 0.750651 15.4277 0.869141V4.55078C14.8691 4.41536 14.2598 4.28841 13.5996 4.16992C12.9395 4.05143 12.1439 3.99219 11.2129 3.99219C10.2819 3.99219 9.57096 4.23763 9.08008 4.72852C8.58919 5.20247 8.34375 5.82031 8.34375 6.58203V11H14.6406ZM23.7051 20.9785V37H19.2871V11H22.918L23.248 13.6406C23.8236 12.7435 24.543 12.0241 25.4062 11.4824C26.2865 10.9238 27.3698 10.6445 28.6562 10.6445C29.2826 10.6445 29.8158 10.6699 30.2559 10.7207C30.7129 10.7715 31.0938 10.8307 31.3984 10.8984V15.5195C30.9583 15.418 30.4505 15.3164 29.875 15.2148C29.2995 15.1133 28.7663 15.0625 28.2754 15.0625C27.1921 15.0625 26.3118 15.3503 25.6348 15.9258C24.9746 16.4844 24.4837 17.2207 24.1621 18.1348C23.8574 19.0319 23.7051 19.9798 23.7051 20.9785ZM53.9199 21.6641V25.5488H40.5137C40.5475 27.2585 40.6829 28.638 40.9199 29.6875C41.1569 30.737 41.4616 31.5579 41.834 32.1504C42.2233 32.7259 42.6719 33.1152 43.1797 33.3184C43.6875 33.5215 44.2715 33.623 44.9316 33.623C46.3874 33.623 47.7077 33.5299 48.8926 33.3438C50.0944 33.1406 51.1016 32.9544 51.9141 32.7852V36.543C51.0677 36.7799 50.0098 36.9746 48.7402 37.127C47.4876 37.2793 46.3958 37.3555 45.4648 37.3555C43.9753 37.3555 42.6465 37.2031 41.4785 36.8984C40.3105 36.5768 39.3288 35.9505 38.5332 35.0195C37.7376 34.0885 37.1283 32.7513 36.7051 31.0078C36.2988 29.2474 36.0957 26.9115 36.0957 24C36.0957 19.2773 36.8913 15.8411 38.4824 13.6914C39.278 12.625 40.2682 11.8548 41.4531 11.3809C42.638 10.89 44.0091 10.6445 45.5664 10.6445C48.5456 10.6445 50.6784 11.6263 51.9648 13.5898C53.2682 15.5365 53.9199 18.2279 53.9199 21.6641ZM45.4648 14.3262C44.6185 14.3262 43.9076 14.4447 43.332 14.6816C42.7565 14.9186 42.2741 15.3333 41.8848 15.9258C41.123 17.0768 40.6829 19.1081 40.5645 22.0195H49.6035V20.623C49.6035 18.6426 49.2988 17.1022 48.6895 16.002C48.097 14.8848 47.0221 14.3262 45.4648 14.3262ZM78.2441 21.6641V25.5488H64.8379C64.8717 27.2585 65.0072 28.638 65.2441 29.6875C65.4811 30.737 65.7858 31.5579 66.1582 32.1504C66.5475 32.7259 66.9961 33.1152 67.5039 33.3184C68.0117 33.5215 68.5957 33.623 69.2559 33.623C70.7116 33.623 72.0319 33.5299 73.2168 33.3438C74.4186 33.1406 75.4258 32.9544 76.2383 32.7852V36.543C75.3919 36.7799 74.334 36.9746 73.0645 37.127C71.8118 37.2793 70.7201 37.3555 69.7891 37.3555C68.2995 37.3555 66.9707 37.2031 65.8027 36.8984C64.6348 36.5768 63.653 35.9505 62.8574 35.0195C62.0618 34.0885 61.4525 32.7513 61.0293 31.0078C60.623 29.2474 60.4199 26.9115 60.4199 24C60.4199 19.2773 61.2155 15.8411 62.8066 13.6914C63.6022 12.625 64.5924 11.8548 65.7773 11.3809C66.9622 10.89 68.3333 10.6445 69.8906 10.6445C72.8698 10.6445 75.0026 11.6263 76.2891 13.5898C77.5924 15.5365 78.2441 18.2279 78.2441 21.6641ZM69.7891 14.3262C68.9427 14.3262 68.2318 14.4447 67.6562 14.6816C67.0807 14.9186 66.5983 15.3333 66.209 15.9258C65.4473 17.0768 65.0072 19.1081 64.8887 22.0195H73.9277V20.623C73.9277 18.6426 73.623 17.1022 73.0137 16.002C72.4212 14.8848 71.3464 14.3262 69.7891 14.3262ZM105.336 18.2363C105.336 22.1126 105.124 25.2949 104.701 27.7832C104.278 30.2546 103.618 32.2012 102.721 33.623C101.84 35.0449 100.74 36.0267 99.4199 36.5684C98.0996 37.0931 96.5677 37.3555 94.8242 37.3555C93.8255 37.3555 92.793 37.347 91.7266 37.3301C90.6771 37.3132 89.7038 37.2708 88.8066 37.2031C88.2819 37.1693 87.7656 37.1354 87.2578 37.1016C86.7669 37.0677 86.276 37.0339 85.7852 37V0.589844C86.2591 0.55599 86.7331 0.522135 87.207 0.488281C87.681 0.454427 88.1634 0.420573 88.6543 0.386719C89.4837 0.31901 90.3893 0.276693 91.3711 0.259766C92.3698 0.242839 93.3177 0.234375 94.2148 0.234375C96.043 0.234375 97.651 0.454427 99.0391 0.894531C100.444 1.31771 101.612 2.18099 102.543 3.48438C103.491 4.78776 104.193 6.60742 104.65 8.94336C105.107 11.2793 105.336 14.377 105.336 18.2363ZM100.715 18.5918C100.715 15.4772 100.588 12.9635 100.334 11.0508C100.08 9.13802 99.7077 7.66536 99.2168 6.63281C98.7428 5.60026 98.1758 4.91471 97.5156 4.57617C96.8724 4.2207 96.153 4.04297 95.3574 4.04297C94.8665 4.04297 94.3333 4.05143 93.7578 4.06836C93.1992 4.08529 92.6576 4.11068 92.1328 4.14453C91.8112 4.16146 91.498 4.17839 91.1934 4.19531C90.8887 4.21224 90.5924 4.22917 90.3047 4.24609V33.3691C90.5755 33.3861 90.8464 33.403 91.1172 33.4199C91.4049 33.4368 91.6927 33.4538 91.9805 33.4707C92.4544 33.5046 92.9876 33.5299 93.5801 33.5469C94.1725 33.5638 94.748 33.5723 95.3066 33.5723C96.1022 33.5723 96.8385 33.3268 97.5156 32.8359C98.1927 32.3451 98.7682 31.5156 99.2422 30.3477C99.6992 29.1966 100.055 27.6647 100.309 25.752C100.579 23.8223 100.715 21.4355 100.715 18.5918ZM129.939 21.6641V25.5488H116.533C116.567 27.2585 116.702 28.638 116.939 29.6875C117.176 30.737 117.481 31.5579 117.854 32.1504C118.243 32.7259 118.691 33.1152 119.199 33.3184C119.707 33.5215 120.291 33.623 120.951 33.623C122.407 33.623 123.727 33.5299 124.912 33.3438C126.114 33.1406 127.121 32.9544 127.934 32.7852V36.543C127.087 36.7799 126.029 36.9746 124.76 37.127C123.507 37.2793 122.415 37.3555 121.484 37.3555C119.995 37.3555 118.666 37.2031 117.498 36.8984C116.33 36.5768 115.348 35.9505 114.553 35.0195C113.757 34.0885 113.148 32.7513 112.725 31.0078C112.318 29.2474 112.115 26.9115 112.115 24C112.115 19.2773 112.911 15.8411 114.502 13.6914C115.298 12.625 116.288 11.8548 117.473 11.3809C118.658 10.89 120.029 10.6445 121.586 10.6445C124.565 10.6445 126.698 11.6263 127.984 13.5898C129.288 15.5365 129.939 18.2279 129.939 21.6641ZM121.484 14.3262C120.638 14.3262 119.927 14.4447 119.352 14.6816C118.776 14.9186 118.294 15.3333 117.904 15.9258C117.143 17.0768 116.702 19.1081 116.584 22.0195H125.623V20.623C125.623 18.6426 125.318 17.1022 124.709 16.002C124.117 14.8848 123.042 14.3262 121.484 14.3262ZM150.684 11H155.254L148.271 37H141.873L134.865 11H139.588L145.225 33.3184L150.684 11ZM175.363 29.459C175.363 32.3366 174.576 34.3763 173.002 35.5781C171.428 36.763 169.303 37.3555 166.629 37.3555C165.139 37.3555 163.87 37.2624 162.82 37.0762C161.788 36.89 160.975 36.7122 160.383 36.543V32.7344C160.806 32.819 161.407 32.929 162.186 33.0645C162.964 33.1999 163.785 33.3184 164.648 33.4199C165.529 33.5215 166.307 33.5723 166.984 33.5723C168.254 33.5723 169.193 33.1914 169.803 32.4297C170.429 31.651 170.742 30.7454 170.742 29.7129C170.742 28.4772 170.522 27.5632 170.082 26.9707C169.659 26.3783 168.787 25.9635 167.467 25.7266C164.792 25.2357 162.905 24.3978 161.805 23.2129C160.721 22.0111 160.18 20.4368 160.18 18.4902C160.18 17.0684 160.4 15.8665 160.84 14.8848C161.297 13.8861 161.915 13.0736 162.693 12.4473C163.472 11.821 164.386 11.3639 165.436 11.0762C166.502 10.7884 167.661 10.6445 168.914 10.6445C170.268 10.6445 171.402 10.7546 172.316 10.9746C173.23 11.1947 173.95 11.3724 174.475 11.5078V15.3164C174.035 15.2148 173.594 15.1133 173.154 15.0117C172.731 14.9102 172.308 14.8001 171.885 14.6816C171.055 14.4785 169.93 14.377 168.508 14.377C167.018 14.377 166.011 14.7493 165.486 15.4941C164.962 16.222 164.699 17.1361 164.699 18.2363C164.699 20.1322 165.808 21.2578 168.025 21.6133C170.734 22.0534 172.63 22.8997 173.713 24.1523C174.813 25.4049 175.363 27.1738 175.363 29.459Z" fill="black"/>
<path d="M-1 24.3555H177.979V26.9453H-1V24.3555Z" fill="black"/>
</svg>
