<svg width="526" height="113" viewBox="0 0 526 113" fill="none" xmlns="http://www.w3.org/2000/svg">
<path d="M18.45 107.4C15.65 107.9 12.6 108.5 9.3 109.2C6 109.9 3.1 110.55 0.6 111.15C1.8 106.85 2.95 102.05 4.05 96.75C5.25 91.35 6.4 85.7 7.5 79.8C8.7 73.9 9.8 67.95 10.8 61.95C11.9 55.85 12.95 50 13.95 44.4C16.05 31.1 18.15 17.35 20.25 3.14999L70.5 0.599991L66.15 19.05H42.6L37.95 45.75C41.05 45.65 44 45.6 46.8 45.6C49.1 45.6 51.45 45.6 53.85 45.6C56.25 45.6 58.1 45.55 59.4 45.45C59.1 48.25 58.7 51 58.2 53.7C57.8 56.4 57.4 59.1 57 61.8C55.7 61.8 53.85 61.8 51.45 61.8C49.05 61.7 46.55 61.6 43.95 61.5C41.45 61.4 38.6 61.3 35.4 61.2L28.5 105.45C25.1 106.05 21.75 106.7 18.45 107.4ZM51.723 111.15C54.423 97.85 57.023 84.85 59.523 72.15C60.423 66.75 61.423 61.15 62.523 55.35C63.623 49.45 64.623 43.65 65.523 37.95C66.523 32.15 67.423 26.6 68.223 21.3C69.123 15.9 69.823 11 70.323 6.59999C76.023 4.79999 82.173 3.49999 88.773 2.69999C95.373 1.8 101.923 1.35 108.423 1.35C112.323 1.35 115.523 1.8 118.023 2.69999C120.623 3.59999 122.623 4.89999 124.023 6.59999C125.523 8.2 126.573 10.1 127.173 12.3C127.773 14.5 128.073 16.95 128.073 19.65C128.073 23.65 127.373 27.6 125.973 31.5C124.573 35.3 122.673 38.95 120.273 42.45C117.973 45.85 115.273 49 112.173 51.9C109.173 54.7 105.923 57 102.423 58.8C104.223 62.8 106.123 67.2 108.123 72C110.223 76.7 112.173 81.2 113.973 85.5C115.973 90.5 118.023 95.5 120.123 100.5L96.873 108.6C94.873 102.2 93.0731 96.2 91.4731 90.6C90.7731 88.3 90.0731 85.95 89.3731 83.55C88.673 81.05 88.023 78.7 87.423 76.5C86.823 74.3 86.323 72.35 85.923 70.65C85.523 68.85 85.273 67.4 85.173 66.3L83.223 66.9C82.623 70.1 81.873 73.85 80.973 78.15C80.173 82.45 79.423 86.6 78.723 90.6C77.823 95.3 76.923 100.05 76.023 104.85L51.723 111.15ZM86.973 46.05C88.873 45.85 91.173 45.05 93.8731 43.65C96.6731 42.25 99.3231 40.6 101.823 38.7C104.323 36.7 106.473 34.65 108.273 32.55C110.073 30.45 110.973 28.6 110.973 27C110.973 25.9 110.623 25.05 109.923 24.45C109.223 23.75 108.223 23.25 106.923 22.95C105.723 22.55 104.373 22.3 102.873 22.2C101.373 22.1 99.823 22.05 98.223 22.05C97.123 22.05 95.973 22.1 94.773 22.2C93.673 22.2 92.673 22.2 91.7731 22.2L86.973 46.05ZM118.973 111.15L138.623 4.49999L186.023 0.449993C185.323 2.64999 184.723 4.9 184.223 7.2C183.723 9.09999 183.223 11.1 182.723 13.2C182.323 15.2 181.973 17 181.673 18.6C180.673 18.7 179.223 18.8 177.323 18.9C175.523 18.9 173.573 18.95 171.473 19.05C169.373 19.05 167.223 19.05 165.023 19.05C162.923 19.05 161.073 19.05 159.473 19.05L154.223 45.9C157.323 45.7 160.223 45.55 162.923 45.45C165.123 45.35 167.373 45.3 169.673 45.3C171.973 45.3 173.673 45.25 174.773 45.15C174.373 47.95 173.973 50.7 173.573 53.4C173.273 56.1 172.873 58.85 172.373 61.65C171.373 61.75 169.723 61.85 167.423 61.95C165.223 61.95 162.973 62 160.673 62.1C158.073 62.2 155.223 62.3 152.123 62.4L147.023 90L168.923 86.55L167.423 103.65L118.973 111.15ZM170.096 111.15L189.746 4.49999L237.146 0.449993C236.446 2.64999 235.846 4.9 235.346 7.2C234.846 9.09999 234.346 11.1 233.846 13.2C233.446 15.2 233.096 17 232.796 18.6C231.796 18.7 230.346 18.8 228.446 18.9C226.646 18.9 224.696 18.95 222.596 19.05C220.496 19.05 218.346 19.05 216.146 19.05C214.046 19.05 212.196 19.05 210.596 19.05L205.346 45.9C208.446 45.7 211.346 45.55 214.046 45.45C216.246 45.35 218.496 45.3 220.796 45.3C223.096 45.3 224.796 45.25 225.896 45.15C225.496 47.95 225.096 50.7 224.696 53.4C224.396 56.1 223.996 58.85 223.496 61.65C222.496 61.75 220.846 61.85 218.546 61.95C216.346 61.95 214.096 62 211.796 62.1C209.196 62.2 206.346 62.3 203.246 62.4L198.146 90L220.046 86.55L218.546 103.65L170.096 111.15ZM274.77 75.3C271.27 75.2 267.92 75.1 264.72 75C261.62 74.9 258.42 74.85 255.12 74.85C251.92 74.75 249.22 74.7 247.02 74.7C245.22 74.7 243.12 74.75 240.72 74.85C238.42 74.85 236.07 74.9 233.67 75C231.27 75.1 228.77 75.15 226.17 75.15L233.37 48.6C236.07 48.7 238.62 48.8 241.02 48.9C243.52 49 246.02 49.1 248.52 49.2C251.02 49.2 253.12 49.2 254.82 49.2C256.92 49.2 259.42 49.2 262.32 49.2C265.22 49.1 268.07 49 270.87 48.9C273.77 48.8 276.77 48.65 279.87 48.45L274.77 75.3ZM350.422 34.35C350.422 39.55 349.672 45.1 348.172 51C346.672 56.8 344.572 62.6 341.872 68.4C339.172 74.1 335.822 79.6 331.822 84.9C327.922 90.1 323.472 94.7 318.472 98.7C313.472 102.6 307.972 105.75 301.972 108.15C296.072 110.55 289.772 111.75 283.072 111.75C281.672 111.75 280.272 111.65 278.872 111.45C277.472 111.35 276.072 111.2 274.672 111C277.372 97.2 280.022 83.75 282.622 70.65C283.622 65.15 284.672 59.45 285.772 53.55C286.872 47.55 287.922 41.65 288.922 35.85C289.922 30.05 290.872 24.5 291.772 19.2C292.772 13.9 293.572 9.1 294.172 4.8C298.472 4 302.822 3.25 307.222 2.54999C311.622 1.85 316.122 1.5 320.722 1.5C326.122 1.5 330.672 2.35 334.372 4.04999C338.172 5.74999 341.222 8.1 343.522 11.1C345.922 14.1 347.672 17.6 348.772 21.6C349.872 25.6 350.422 29.85 350.422 34.35ZM315.022 22.65C313.922 28.55 312.772 34.2 311.572 39.6C310.372 45 309.172 50.45 307.972 55.95C306.772 61.45 305.572 67.2 304.372 73.2C303.172 79.2 302.022 85.75 300.922 92.85C303.322 91.25 305.622 89.1 307.822 86.4C310.122 83.6 312.272 80.4 314.272 76.8C316.272 73.2 318.072 69.4 319.672 65.4C321.372 61.4 322.822 57.5 324.022 53.7C325.222 49.9 326.122 46.35 326.722 43.05C327.422 39.75 327.772 36.9 327.772 34.5C327.772 30.8 326.722 27.9 324.622 25.8C322.622 23.7 319.422 22.65 315.022 22.65ZM341.483 111.15L361.133 4.49999L408.533 0.449993C407.833 2.64999 407.233 4.9 406.733 7.2C406.233 9.09999 405.733 11.1 405.233 13.2C404.833 15.2 404.483 17 404.183 18.6C403.183 18.7 401.733 18.8 399.833 18.9C398.033 18.9 396.083 18.95 393.983 19.05C391.883 19.05 389.733 19.05 387.533 19.05C385.433 19.05 383.583 19.05 381.983 19.05L376.733 45.9C379.833 45.7 382.733 45.55 385.433 45.45C387.633 45.35 389.883 45.3 392.183 45.3C394.483 45.3 396.183 45.25 397.283 45.15C396.883 47.95 396.483 50.7 396.083 53.4C395.783 56.1 395.383 58.85 394.883 61.65C393.883 61.75 392.233 61.85 389.933 61.95C387.733 61.95 385.483 62 383.183 62.1C380.583 62.2 377.733 62.3 374.633 62.4L369.533 90L391.433 86.55L389.933 103.65L341.483 111.15ZM400.256 112.35C401.556 98.35 402.756 84.6 403.856 71.1C404.356 65.5 404.806 59.6 405.206 53.4C405.706 47.2 406.106 41.1 406.406 35.1C406.806 29 407.106 23.15 407.306 17.55C407.506 11.85 407.656 6.65 407.756 1.94999C410.156 1.94999 412.706 1.89999 415.406 1.79999C418.206 1.69999 420.706 1.6 422.906 1.5C425.206 1.4 427.156 1.3 428.756 1.19999C430.356 0.999995 431.156 0.899996 431.156 0.899996C430.056 12.5 429.106 22.05 428.306 29.55C427.506 36.95 426.856 43 426.356 47.7C425.956 52.3 425.556 56.75 425.156 61.05C424.856 65.35 424.506 69.35 424.106 73.05C423.706 76.75 423.356 79.9 423.056 82.5H425.756L442.556 2.69999C445.256 2.59999 448.006 2.44999 450.806 2.25C453.306 2.04999 455.906 1.89999 458.606 1.79999C461.406 1.69999 463.956 1.49999 466.256 1.19999C464.856 5.6 463.406 10.45 461.906 15.75C460.506 21.05 459.006 26.55 457.406 32.25C455.906 37.95 454.406 43.75 452.906 49.65C451.506 55.55 450.106 61.25 448.706 66.75C445.506 79.65 442.306 92.9 439.106 106.5L400.256 112.35ZM514.692 73.95C514.692 79.55 513.592 84.65 511.392 89.25C509.292 93.75 506.392 97.65 502.692 100.95C499.092 104.25 494.792 106.8 489.792 108.6C484.892 110.4 479.592 111.3 473.892 111.3C469.892 111.3 465.892 110.25 461.892 108.15C457.892 105.95 454.042 102.5 450.342 97.8L461.442 76.05C462.142 77.35 463.192 78.7 464.592 80.1C465.992 81.4 467.542 82.55 469.242 83.55C471.042 84.55 472.792 85.4 474.492 86.1C476.292 86.7 477.892 87 479.292 87C480.492 87 481.742 86.8 483.042 86.4C484.342 86 485.542 85.4 486.642 84.6C487.742 83.8 488.592 82.9 489.192 81.9C489.892 80.8 490.242 79.55 490.242 78.15C490.242 75.75 489.442 73.55 487.842 71.55C486.342 69.45 484.442 67.5 482.142 65.7C479.842 63.8 477.342 61.9 474.642 60C471.942 58.1 469.442 56.1 467.142 54C464.942 51.9 463.042 49.55 461.442 46.95C459.842 44.35 459.042 41.45 459.042 38.25C459.042 33.05 460.592 28.2 463.692 23.7C466.792 19.2 470.642 15.35 475.242 12.15C479.942 8.84999 485.042 6.25 490.542 4.35C496.042 2.45 501.242 1.5 506.142 1.5C508.842 1.5 511.392 1.85 513.792 2.54999C516.192 3.15 518.242 4.2 519.942 5.7C521.742 7.1 523.142 8.9 524.142 11.1C525.242 13.3 525.792 16.05 525.792 19.35C525.792 20.75 525.642 22.15 525.342 23.55C525.142 24.95 524.942 26.45 524.742 28.05L502.992 34.35C503.192 33.55 503.342 32.75 503.442 31.95C503.642 31.15 503.742 30.35 503.742 29.55C503.742 26.55 503.192 24.4 502.092 23.1C501.092 21.7 499.742 21 498.042 21C497.242 21 496.242 21.3 495.042 21.9C493.942 22.5 492.792 23.3 491.592 24.3C490.492 25.2 489.542 26.3 488.742 27.6C487.942 28.9 487.542 30.3 487.542 31.8C487.542 34.2 488.192 36.2 489.492 37.8C490.892 39.4 492.592 40.9 494.592 42.3C496.592 43.7 498.742 45.15 501.042 46.65C503.442 48.05 505.642 49.9 507.642 52.2C509.642 54.5 511.292 57.4 512.592 60.9C513.992 64.3 514.692 68.65 514.692 73.95Z" fill="white"/>
</svg>
